# Blender v2.65 (sub 0) OBJ File: ''
# www.blender.org
o Cube
v -1.000000 -1.232437 1.018445
v -1.000000 -1.232437 -1.000000
v 1.000000 -1.232437 -1.000000
v 1.000000 -1.232437 1.000000
v -1.000000 1.000000 1.018445
v -1.000000 1.000000 -1.000000
v 1.014846 1.015776 -1.009971
v 1.000000 1.000000 1.000000
v -0.589911 2.193594 0.589911
v -0.589911 2.193594 -0.589911
v 0.589911 2.193594 -0.589911
v 0.589911 2.193594 0.589911
v -0.787870 -0.982095 2.171139
v 0.787870 -0.982095 2.152694
v -0.787870 0.593644 2.171139
v 0.787870 0.593644 2.152694
v -0.287903 -0.731035 3.304236
v 0.287903 -0.731035 3.304236
v -0.287903 -0.155229 3.304236
v 0.287903 -0.155229 3.304236
v -1.999325 -1.270248 0.787442
v -1.999325 -1.270248 -0.804455
v 1.998390 -1.270248 -0.804455
v 1.998390 -1.270248 0.787442
v -1.999325 0.554086 0.787442
v -1.999325 0.554086 -0.804455
v 1.998390 0.554086 -0.804455
v 1.998390 0.554086 0.787442
v -2.889707 -1.193564 0.549640
v -2.889707 -1.193564 -0.566653
v 2.869603 -1.193564 -0.566653
v 2.869603 -1.193564 0.549640
v -2.889707 -0.077271 0.549640
v -2.889707 -0.077271 -0.566653
v 2.869603 -0.077271 -0.566653
v 2.869603 -0.077271 0.549640
v -1.000000 -1.000000 -2.526384
v 1.000000 -1.000000 -2.526384
v -1.000000 1.000000 -2.526384
v 1.000000 1.000000 -2.526384
v -1.313818 -1.313818 -3.094631
v 1.313818 -1.313818 -3.094631
v -1.313818 1.313818 -3.094631
v 1.313818 1.313818 -3.094631
v -1.313818 -1.313818 -4.936707
v 1.313818 -1.313818 -4.936707
v -1.313818 1.313818 -4.936707
v 1.313818 1.313818 -4.936707
v -0.997525 -0.997525 -5.516179
v 0.997525 -0.997525 -5.516179
v -0.997525 0.997525 -5.516179
v 0.997525 0.997525 -5.516179
v -0.510404 -0.554578 -6.860108
v 0.510404 -0.554578 -6.860108
v -0.510404 0.403506 -7.212424
v 0.510404 0.403506 -7.212424
v -0.205682 -0.618560 -7.944731
v 0.205682 -0.618560 -7.944731
v -0.205682 -0.293232 -8.196489
v 0.205682 -0.293232 -8.196489
vt 0.239202 0.598550
vt 0.430545 0.598550
vt 0.430545 0.503797
vt 0.239202 0.503797
vt 0.527135 0.212189
vt 0.527135 0.020846
vt 0.432382 0.020846
vt 0.432382 0.212189
vt 0.239202 0.501960
vt 0.430545 0.501960
vt 0.430545 0.407207
vt 0.239202 0.407207
vt 0.527135 0.598550
vt 0.527135 0.407207
vt 0.432382 0.407207
vt 0.432382 0.598550
vt 0.430545 0.214027
vt 0.239202 0.214027
vt 0.239202 0.405370
vt 0.430545 0.405370
vt 0.623725 0.841862
vt 0.528972 0.841862
vt 0.528972 0.936615
vt 0.623725 0.936615
vt 0.140775 0.793567
vt 0.046022 0.793567
vt 0.046022 0.888320
vt 0.140775 0.888320
vt 0.237365 0.793567
vt 0.142612 0.793567
vt 0.142612 0.888320
vt 0.237365 0.888320
vt 0.720315 0.793567
vt 0.625562 0.793567
vt 0.625562 0.888320
vt 0.720315 0.888320
vt 0.816906 0.793567
vt 0.722153 0.793567
vt 0.722153 0.888320
vt 0.816906 0.888320
vt 0.913496 0.793567
vt 0.818743 0.793567
vt 0.818743 0.888320
vt 0.913496 0.888320
vt 0.528972 0.212189
vt 0.720315 0.212189
vt 0.720315 0.117436
vt 0.528972 0.117436
vt 0.140775 0.598550
vt 0.140775 0.407207
vt 0.046022 0.407207
vt 0.046022 0.598550
vt 0.046022 0.695140
vt 0.237365 0.695140
vt 0.237365 0.600387
vt 0.046022 0.600387
vt 0.961791 0.069141
vt 0.915333 0.069141
vt 0.915333 0.115599
vt 0.961791 0.115599
vt 0.913496 0.503797
vt 0.818743 0.503797
vt 0.818743 0.598550
vt 0.913496 0.598550
vt 0.913496 0.020846
vt 0.818743 0.020846
vt 0.818743 0.115599
vt 0.913496 0.115599
vt 0.237365 0.696977
vt 0.142612 0.696977
vt 0.142612 0.791730
vt 0.237365 0.791730
vt 0.333955 0.696977
vt 0.239202 0.696977
vt 0.239202 0.791730
vt 0.333955 0.791730
vt 0.816906 0.890157
vt 0.722153 0.890157
vt 0.722153 0.984910
vt 0.816906 0.984910
vt 0.816906 0.405370
vt 0.816906 0.214027
vt 0.722153 0.214027
vt 0.722153 0.405370
vt 0.625562 0.791730
vt 0.816906 0.791730
vt 0.816906 0.696977
vt 0.625562 0.696977
vt 0.816906 0.598550
vt 0.816906 0.407207
vt 0.722153 0.407207
vt 0.722153 0.598550
vt 0.625562 0.695140
vt 0.816906 0.695140
vt 0.816906 0.600387
vt 0.625562 0.600387
vt 0.720315 0.405370
vt 0.720315 0.214027
vt 0.625562 0.214027
vt 0.625562 0.405370
vt 0.239202 0.695140
vt 0.430545 0.695140
vt 0.430545 0.600387
vt 0.239202 0.600387
vt 0.430545 0.696977
vt 0.335792 0.696977
vt 0.335792 0.791730
vt 0.430545 0.791730
vt 0.140775 0.696977
vt 0.046022 0.696977
vt 0.046022 0.791730
vt 0.140775 0.791730
vt 0.816906 0.020846
vt 0.722153 0.020846
vt 0.722153 0.115599
vt 0.816906 0.115599
vt 0.816906 0.117436
vt 0.722153 0.117436
vt 0.722153 0.212189
vt 0.816906 0.212189
vt 0.913496 0.214027
vt 0.818743 0.214027
vt 0.818743 0.308780
vt 0.913496 0.308780
vt 0.913496 0.117436
vt 0.818743 0.117436
vt 0.818743 0.212189
vt 0.913496 0.212189
vt 0.913496 0.407207
vt 0.818743 0.407207
vt 0.818743 0.501960
vt 0.913496 0.501960
vt 0.913496 0.310617
vt 0.818743 0.310617
vt 0.818743 0.405370
vt 0.913496 0.405370
vt 0.865201 0.791730
vt 0.865201 0.600387
vt 0.818743 0.600387
vt 0.818743 0.791730
vt 0.432382 0.695140
vt 0.623725 0.695140
vt 0.623725 0.600387
vt 0.432382 0.600387
vt 0.720315 0.598550
vt 0.720315 0.407207
vt 0.625562 0.407207
vt 0.625562 0.598550
vt 0.528972 0.115599
vt 0.720315 0.115599
vt 0.720315 0.020846
vt 0.528972 0.020846
vt 0.237365 0.020846
vt 0.046022 0.020846
vt 0.046022 0.212189
vt 0.237365 0.212189
vt 0.913496 0.791730
vt 0.913496 0.600387
vt 0.867038 0.600387
vt 0.867038 0.791730
vt 0.432382 0.840025
vt 0.623725 0.840025
vt 0.623725 0.793567
vt 0.432382 0.793567
vt 0.961791 0.791730
vt 0.961791 0.600387
vt 0.915333 0.600387
vt 0.915333 0.791730
vt 0.239202 0.840025
vt 0.430545 0.840025
vt 0.430545 0.793567
vt 0.239202 0.793567
vt 0.623725 0.214027
vt 0.432382 0.214027
vt 0.432382 0.405370
vt 0.623725 0.405370
vt 0.237365 0.214027
vt 0.046022 0.214027
vt 0.046022 0.405370
vt 0.237365 0.405370
vt 0.430545 0.020846
vt 0.239202 0.020846
vt 0.239202 0.212189
vt 0.430545 0.212189
vt 0.237365 0.407207
vt 0.142612 0.407207
vt 0.142612 0.598550
vt 0.237365 0.598550
vt 0.335792 0.888320
vt 0.527135 0.888320
vt 0.527135 0.841862
vt 0.335792 0.841862
vt 0.961791 0.598550
vt 0.961791 0.407207
vt 0.915333 0.407207
vt 0.915333 0.598550
vt 0.142612 0.936615
vt 0.333955 0.936615
vt 0.333955 0.890157
vt 0.142612 0.890157
vt 0.961791 0.214027
vt 0.915333 0.214027
vt 0.915333 0.308780
vt 0.961791 0.308780
vt 0.720315 0.890157
vt 0.625562 0.890157
vt 0.625562 0.984910
vt 0.720315 0.984910
vt 0.623725 0.791730
vt 0.623725 0.696977
vt 0.432382 0.696977
vt 0.432382 0.791730
vt 0.623725 0.407207
vt 0.528972 0.407207
vt 0.528972 0.598550
vt 0.623725 0.598550
vt 0.961791 0.117436
vt 0.915333 0.117436
vt 0.915333 0.163894
vt 0.961791 0.163894
vt 0.430545 0.936615
vt 0.430545 0.890157
vt 0.335792 0.890157
vt 0.335792 0.936615
vt 0.961791 0.310617
vt 0.915333 0.310617
vt 0.915333 0.405370
vt 0.961791 0.405370
vt 0.333955 0.888320
vt 0.333955 0.841862
vt 0.239202 0.841862
vt 0.239202 0.888320
vn -0.326395 -0.847560 0.418409
vn -0.576434 0.611469 0.542009
vn -0.486648 0.602466 0.632588
vn -0.178381 -0.715110 0.675832
vn 0.326548 -0.876858 -0.352763
vn -0.326518 -0.876614 -0.353404
vn -0.682363 -0.649312 0.335704
vn 0.682241 -0.650380 0.333934
vn -0.634663 0.652272 -0.414350
vn -0.474044 0.602039 -0.642476
vn 0.321451 -0.849605 0.418104
vn 0.578326 0.609180 0.542558
vn 0.647175 0.609516 0.457808
vn 0.684042 -0.646321 0.338084
vn 0.634205 0.653706 -0.412763
vn -0.474563 0.743370 -0.471328
vn 0.469832 0.746971 -0.470382
vn 0.471847 0.744499 0.472243
vn -0.472793 0.744865 0.470748
vn -0.682180 -0.647114 0.340342
vn 0.440230 -0.521622 0.730796
vn -0.436903 -0.522019 0.732505
vn -0.643361 0.610981 0.461257
vn 0.453658 0.374828 0.808496
vn -0.448897 0.375011 0.811060
vn 0.172094 -0.711539 -0.681204
vn 0.483322 0.597400 -0.639882
vn 0.781030 0.354045 -0.514389
vn 0.665944 -0.561937 -0.490616
vn -0.167913 -0.711509 -0.682302
vn -0.664205 -0.562304 -0.492538
vn -0.778100 0.358165 -0.515946
vn 0.175390 -0.712790 0.679067
vn 0.486129 0.597919 0.637257
vn -0.778100 0.358165 0.515946
vn -0.664205 -0.562304 0.492538
vn 0.781030 0.354045 0.514389
vn 0.665944 -0.561937 0.490616
vn -0.654469 0.653249 0.380596
vn 0.654286 0.654317 0.379131
vn 0.677236 0.677236 0.287515
vn -0.677236 0.677236 0.287515
vn -0.677236 -0.677236 0.287515
vn -0.677694 0.677694 -0.285379
vn -0.677694 -0.677694 -0.285379
vn 0.677236 -0.677236 0.287515
vn 0.677694 -0.677694 -0.285379
vn -0.594043 -0.596698 -0.539445
vn 0.594043 -0.596698 -0.539445
vn 0.677694 0.677694 -0.285379
vn 0.591205 0.591418 -0.548326
vn 0.674612 -0.673116 -0.302957
vn 0.630268 0.597552 -0.495621
vn -0.591205 0.591418 -0.548326
vn 0.512192 -0.754906 -0.409528
vn 0.481063 0.113742 -0.869259
vn -0.674612 -0.673116 -0.302957
vn -0.630268 0.597552 -0.495621
vn -0.481063 0.113742 -0.869259
vn -0.512192 -0.754906 -0.409528
s 1
f 1/1/1 5/2/2 25/3/3
f 1/1/1 25/3/3 21/4/4
f 3/5/5 2/6/6 37/7/7
f 3/5/5 37/7/7 38/8/8
f 5/9/2 6/10/9 26/11/10
f 5/9/2 26/11/10 25/12/3
f 4/13/11 8/14/12 16/15/13
f 4/13/11 16/15/13 14/16/14
f 1/17/1 2/18/6 3/19/5
f 1/17/1 3/19/5 4/20/11
f 7/21/15 6/22/9 10/23/16
f 7/21/15 10/23/16 11/24/17
f 12/25/18 11/26/17 10/27/16
f 12/25/18 10/27/16 9/28/19
f 5/29/2 8/30/12 12/31/18
f 5/29/2 12/31/18 9/32/19
f 8/33/12 7/34/15 11/35/17
f 8/33/12 11/35/17 12/36/18
f 6/37/9 5/38/2 9/39/19
f 6/37/9 9/39/19 10/40/16
f 13/41/20 14/42/14 18/43/21
f 13/41/20 18/43/21 17/44/22
f 8/45/12 5/46/2 15/47/23
f 8/45/12 15/47/23 16/48/13
f 5/49/2 1/50/1 13/51/20
f 5/49/2 13/51/20 15/52/23
f 1/53/1 4/54/11 14/55/14
f 1/53/1 14/55/14 13/56/20
f 20/57/24 19/58/25 17/59/22
f 20/57/24 17/59/22 18/60/21
f 15/61/23 13/62/20 17/63/22
f 15/61/23 17/63/22 19/64/25
f 14/65/14 16/66/13 20/67/24
f 14/65/14 20/67/24 18/68/21
f 16/69/13 15/70/23 19/71/25
f 16/69/13 19/71/25 20/72/24
f 23/73/26 27/74/27 35/75/28
f 23/73/26 35/75/28 31/76/29
f 26/77/10 22/78/30 30/79/31
f 26/77/10 30/79/31 34/80/32
f 4/81/11 3/82/5 23/83/26
f 4/81/11 23/83/26 24/84/33
f 2/85/6 1/86/1 21/87/4
f 2/85/6 21/87/4 22/88/30
f 3/89/5 7/90/15 27/91/27
f 3/89/5 27/91/27 23/92/26
f 8/93/12 4/94/11 24/95/33
f 8/93/12 24/95/33 28/96/34
f 6/97/9 2/98/6 22/99/30
f 6/97/9 22/99/30 26/100/10
f 7/101/15 8/102/12 28/103/34
f 7/101/15 28/103/34 27/104/27
f 33/105/35 34/106/32 30/107/31
f 33/105/35 30/107/31 29/108/36
f 35/109/28 36/110/37 32/111/38
f 35/109/28 32/111/38 31/112/29
f 24/113/33 23/114/26 31/115/29
f 24/113/33 31/115/29 32/116/38
f 25/117/3 26/118/10 34/119/32
f 25/117/3 34/119/32 33/120/35
f 21/121/4 25/122/3 33/123/35
f 21/121/4 33/123/35 29/124/36
f 28/125/34 24/126/33 32/127/38
f 28/125/34 32/127/38 36/128/37
f 22/129/30 21/130/4 29/131/36
f 22/129/30 29/131/36 30/132/31
f 27/133/27 28/134/34 36/135/37
f 27/133/27 36/135/37 35/136/28
f 39/137/39 40/138/40 44/139/41
f 39/137/39 44/139/41 43/140/42
f 6/141/9 7/142/15 40/143/40
f 6/141/9 40/143/40 39/144/39
f 2/145/6 6/146/9 39/147/39
f 2/145/6 39/147/39 37/148/7
f 7/149/15 3/150/5 38/151/8
f 7/149/15 38/151/8 40/152/40
f 41/153/43 43/154/42 47/155/44
f 41/153/43 47/155/44 45/156/45
f 40/157/40 38/158/8 42/159/46
f 40/157/40 42/159/46 44/160/41
f 38/161/8 37/162/7 41/163/43
f 38/161/8 41/163/43 42/164/46
f 37/165/7 39/166/39 43/167/42
f 37/165/7 43/167/42 41/168/43
f 46/169/47 45/170/45 49/171/48
f 46/169/47 49/171/48 50/172/49
f 43/173/42 44/174/41 48/175/50
f 43/173/42 48/175/50 47/176/44
f 44/177/41 42/178/46 46/179/47
f 44/177/41 46/179/47 48/180/50
f 42/181/46 41/182/43 45/183/45
f 42/181/46 45/183/45 46/184/47
f 52/185/51 50/186/49 54/187/52
f 52/185/51 54/187/52 56/188/53
f 45/189/45 47/190/44 51/191/54
f 45/189/45 51/191/54 49/192/48
f 47/193/44 48/194/50 52/195/51
f 47/193/44 52/195/51 51/196/54
f 48/197/50 46/198/47 50/199/49
f 48/197/50 50/199/49 52/200/51
f 56/201/53 54/202/52 58/203/55
f 56/201/53 58/203/55 60/204/56
f 50/205/49 49/206/48 53/207/57
f 50/205/49 53/207/57 54/208/52
f 49/209/48 51/210/54 55/211/58
f 49/209/48 55/211/58 53/212/57
f 51/213/54 52/214/51 56/215/53
f 51/213/54 56/215/53 55/216/58
f 59/217/59 60/218/56 58/219/55
f 59/217/59 58/219/55 57/220/60
f 54/221/52 53/222/57 57/223/60
f 54/221/52 57/223/60 58/224/55
f 53/225/57 55/226/58 59/227/59
f 53/225/57 59/227/59 57/228/60
f 55/229/58 56/230/53 60/231/56
f 55/229/58 60/231/56 59/232/59
