# Blender v2.65 (sub 0) OBJ File: 'backRightLeg.blend'
# www.blender.org
o foot_LP.001_horse_LP.007_horse_LP.001_Cube.001
v -0.065583 0.427423 0.889005
v -0.044446 0.761495 0.614394
v -0.474290 0.605459 0.467516
v -0.478350 0.297488 0.705456
v -0.059026 -0.546213 0.816089
v -0.531258 -0.443354 0.637677
v -0.602602 -0.689855 0.370955
v -0.041569 -0.998662 0.572481
v -0.714197 0.000075 0.004393
v -0.488082 -0.076915 0.754455
v -0.466566 0.735743 0.100081
v -0.462414 0.656992 -0.278759
v -0.482460 0.050015 -0.676626
v -0.520485 -0.320893 -0.619638
v -0.635319 -0.752430 -0.068049
v -0.033882 0.154865 -0.865870
v -0.479070 0.410897 -0.568410
v -0.025914 0.567938 -0.704874
v -0.042648 -0.320022 -0.825089
v -0.040811 -0.893647 -0.676184
v -0.574975 -0.612860 -0.435736
v -0.035776 0.822251 -0.331470
v -0.028205 0.897226 0.164707
v -0.333363 -2.686754 -0.483177
v 0.003745 -2.676725 -0.540465
v 0.059388 -2.900155 -0.538515
v -0.330618 -2.890876 -0.494532
v 0.198186 -2.674109 -0.251695
v 0.016301 -2.676796 0.073507
v 0.060122 -2.900153 0.087957
v 0.245812 -2.906777 -0.243255
v -0.411671 -2.701048 -0.243921
v -0.420524 -2.903393 -0.240002
v -0.323784 -2.697916 0.014217
v -0.299396 -2.907657 0.066361
v -0.331348 -3.108226 -0.244091
v -0.262309 -3.091359 -0.043064
v -0.013193 -3.118113 -0.025593
v 0.131264 -3.131441 -0.248368
v -0.030364 -3.128582 -0.455528
v -0.261291 -3.113935 -0.421528
v 0.069425 -1.265517 -0.176737
v -0.076017 -0.090827 0.942294
v -0.294568 -2.233454 -0.380272
v -0.358336 -2.236729 -0.200481
v -0.030276 -2.311297 -0.465837
v 0.120661 -2.370060 -0.234674
v -0.033468 -2.297296 0.089937
v -0.288045 -2.206885 0.020013
v -0.504977 -1.136725 0.274565
v -0.058300 -1.379570 0.409852
v -0.049140 -1.297306 -0.562452
v -0.539480 -1.190141 -0.085017
v -0.426324 -1.074683 -0.384686
v 0.088759 -1.591471 -0.193812
vt 0.906750 0.090302
vt 0.959612 0.175554
vt 0.870234 0.204155
vt 0.829590 0.152700
vt 0.712709 0.026322
vt 0.692415 0.129261
vt 0.611612 0.151963
vt 0.610855 0.043871
vt 0.726215 0.245627
vt 0.766428 0.125826
vt 0.872446 0.268406
vt 0.844175 0.325695
vt 0.722662 0.366744
vt 0.653595 0.338281
vt 0.575804 0.222943
vt 0.757697 0.466017
vt 0.790600 0.361759
vt 0.853025 0.443458
vt 0.654345 0.443995
vt 0.546118 0.393767
vt 0.583223 0.296819
vt 0.927092 0.372285
vt 0.964612 0.274594
vt 0.252741 0.231641
vt 0.192744 0.275487
vt 0.134011 0.281065
vt 0.183741 0.205903
vt 0.749224 0.559892
vt 0.762249 0.502046
vt 0.807504 0.494666
vt 0.799232 0.557172
vt 0.275324 0.170650
vt 0.209276 0.156235
vt 0.764051 0.614519
vt 0.811203 0.616385
vt 0.282829 0.104214
vt 0.207801 0.094233
vt 0.243308 0.040190
vt 0.194058 0.018361
vt 0.140236 0.036360
vt 0.144363 0.093706
vt 0.847986 0.557827
vt 0.944520 0.555489
vt 0.920711 0.599941
vt 0.861421 0.602327
vt 0.093264 0.236132
vt 0.122584 0.184246
vt 0.136571 0.140736
vt 0.858564 0.510346
vt 0.918517 0.509243
vt 0.417982 0.264230
vt 0.369431 0.334627
vt 0.596168 0.633989
vt 0.624000 0.554752
vt 0.427081 0.042031
vt 0.447220 0.128088
vt 0.425564 0.196797
vt 0.602609 0.453703
vt 0.072257 0.652713
vt 0.258541 0.700624
vt 0.158406 0.696213
vt 0.812400 0.036207
vt 0.023984 0.567402
vt 0.347404 0.661962
vt 0.442970 0.405359
vt 0.498776 0.549612
vt 0.428285 0.653459
vt 0.028067 0.463308
vt 0.393880 0.584054
vt 0.072988 0.380532
vt 0.399131 0.487223
vt 0.144652 0.308070
vt 0.383767 0.371957
vt 0.500602 0.280525
vt 0.457775 0.364197
vt 0.512226 0.643724
vt 0.561388 0.552182
vt 0.518968 0.042951
vt 0.529416 0.140026
vt 0.500684 0.209870
vt 0.522790 0.429531
vn 0.451613 0.348582 0.821284
vn 0.476852 0.712821 0.514237
vn -0.724235 0.576983 0.377514
vn -0.733360 0.263985 0.626453
vn 0.503311 -0.356120 0.787286
vn -0.734275 -0.238990 0.635334
vn -0.855037 -0.261635 0.447676
vn 0.530168 -0.312601 0.788141
vn -0.995300 0.095859 -0.013428
vn -0.720328 -0.025910 0.693136
vn -0.692923 0.720267 0.032105
vn -0.689566 0.663503 -0.290201
vn -0.701926 0.088748 -0.706656
vn -0.725059 -0.115360 -0.678915
vn -0.978423 -0.185461 -0.090915
vn 0.505753 0.123569 -0.853755
vn -0.709159 0.411786 -0.572283
vn 0.500015 0.520432 -0.692160
vn 0.523453 -0.167608 -0.835383
vn 0.491226 -0.189306 -0.850185
vn -0.818384 -0.194311 -0.540788
vn 0.516465 0.789026 -0.332591
vn 0.560778 0.824427 0.076205
vn -0.644673 0.106601 -0.756951
vn 0.357646 0.169164 -0.918393
vn 0.469741 -0.158025 -0.868496
vn -0.618732 -0.180456 -0.764550
vn 0.976379 0.209021 -0.054109
vn 0.434645 0.139012 0.889798
vn 0.483749 -0.142644 0.863491
vn 0.989898 -0.139958 -0.022584
vn -0.997864 0.064791 -0.005463
vn -0.981933 -0.188757 0.012391
vn -0.682089 0.053743 0.729270
vn -0.549120 -0.197424 0.812067
vn 0.240150 -0.801874 0.547044
vn -0.441725 -0.758782 0.478622
vn 0.609088 -0.792016 -0.040712
vn -0.638813 -0.769250 0.011750
vn -0.422987 -0.755486 -0.500290
vn 0.194067 -0.778344 -0.597064
vn -0.704489 0.036256 -0.708762
vn 0.385846 0.128117 -0.913602
vn 0.992492 0.110111 -0.052858
vn 0.442030 -0.070925 0.894162
vn -0.726981 -0.162481 0.667104
vn -0.998779 -0.022736 -0.043672
vn 0.481185 -0.071657 0.873653
vn 0.995788 0.087100 -0.028504
vn -0.737510 -0.207068 -0.642750
vn 0.382702 -0.113468 -0.916837
vn 0.998016 -0.020966 -0.058901
vn 0.426496 -0.273690 0.862056
vn -0.775353 -0.293619 0.559069
vn -0.974120 -0.205939 -0.093051
s 1
f 1/1/1 2/2/2 3/3/3 4/4/4
f 5/5/5 6/6/6 7/7/7 8/8/8
f 9/9/9 10/10/10 4/4/4
f 9/9/9 11/11/11 12/12/12
f 9/9/9 13/13/13 14/14/14
f 9/9/9 15/15/15 7/7/7
f 16/16/16 13/13/13 17/17/17 18/18/18
f 19/19/19 20/20/20 21/21/21 14/14/14
f 22/22/22 18/18/18 17/17/17 12/12/12
f 23/23/23 11/11/11 3/3/3 2/2/2
f 24/24/24 25/25/25 26/26/26 27/27/27
f 28/28/28 29/29/29 30/30/30 31/31/31
f 32/32/32 24/24/24 27/27/27 33/33/33
f 25/34/25 28/28/28 31/31/31 26/35/26
f 34/36/34 32/32/32 33/33/33 35/37/35
f 29/38/29 34/36/34 35/37/35 30/39/30
f 30/39/30 35/37/35 38/40/36
f 35/37/35 37/41/37 38/40/36
f 39/42/38 36/43/39 41/44/40 40/45/41
f 27/27/27 26/26/26 40/46/41
f 27/27/27 40/46/41 41/47/40
f 35/37/35 33/33/33 36/48/39 37/41/37
f 26/35/26 31/31/31 40/45/41
f 31/31/31 39/42/38 40/45/41
f 38/49/36 37/50/37 36/43/39 39/42/38
f 44/51/42 46/52/43 25/25/25 24/24/24
f 46/53/43 47/54/44 28/28/28 25/34/25
f 48/55/45 49/56/46 34/36/34 29/38/29
f 49/56/46 45/57/47 32/32/32 34/36/34
f 47/54/44 48/58/45 29/29/29 28/28/28
f 45/57/47 44/51/42 24/24/24 32/32/32
f 2/59/2 22/60/22 23/61/23
f 33/33/33 27/27/27 41/47/40 36/48/39
f 23/23/23 22/22/22 12/12/12 11/11/11
f 16/16/16 19/19/19 14/14/14 13/13/13
f 43/62/48 1/1/1 4/4/4 10/10/10
f 43/62/48 10/10/10 6/6/6 5/5/5
f 11/11/11 9/9/9 3/3/3
f 3/3/3 9/9/9 4/4/4
f 10/10/10 9/9/9 6/6/6
f 6/6/6 9/9/9 7/7/7
f 15/15/15 9/9/9 21/21/21
f 21/21/21 9/9/9 14/14/14
f 13/13/13 9/9/9 17/17/17
f 17/17/17 9/9/9 12/12/12
f 1/63/1 18/64/18 22/60/22 2/59/2
f 8/65/8 42/66/49 20/67/20
f 1/63/1 43/68/48 16/69/16 18/64/18
f 43/68/48 5/70/5 19/71/19 16/69/16
f 5/70/5 8/72/8 20/73/20 19/71/19
f 31/31/31 30/30/30 38/49/36 39/42/38
f 54/74/50 52/75/51 46/52/43 44/51/42
f 52/76/51 55/77/52 47/54/44 46/53/43
f 51/78/53 50/79/54 49/56/46 48/55/45
f 50/79/54 53/80/55 45/57/47 49/56/46
f 55/77/52 51/81/53 48/58/45 47/54/44
f 53/80/55 54/74/50 44/51/42 45/57/47
f 8/8/8 7/7/7 50/79/54 51/78/53
f 15/15/15 21/21/21 54/74/50 53/80/55
f 42/66/49 8/65/8 51/81/53 55/77/52
f 20/67/20 42/66/49 55/77/52 52/76/51
f 21/21/21 20/20/20 52/75/51 54/74/50
f 7/7/7 15/15/15 53/80/55 50/79/54
