# Blender v2.65 (sub 0) OBJ File: 'backRightLeg.blend'
# www.blender.org
o foot_LP_horse_LP.007_horse_LP.001_Cube.000
v -0.169274 -0.034188 -0.035818
v -0.092076 -0.024662 -0.197166
v -0.112887 -0.119976 -0.223530
v -0.198379 -0.125210 -0.026191
v -0.067020 -0.025095 0.211728
v -0.108682 -0.110670 0.249897
v 0.018217 -0.017195 -0.220032
v 0.027954 -0.106384 -0.258705
v 0.075431 -0.311932 -0.308967
v -0.121156 -0.317994 -0.276844
v 0.222275 -0.096807 -0.027288
v 0.299365 -0.309304 0.063892
v 0.177066 -0.014345 -0.029469
v 0.074581 -0.025970 0.207787
v 0.118984 -0.108058 0.272938
v 0.128797 -0.323798 0.521960
v -0.086609 -0.334730 0.484919
v -0.052787 -0.511868 0.565882
v 0.104878 -0.538010 0.592408
v 0.230104 -0.523505 0.124365
v -0.255832 -0.330088 0.058781
v -0.241691 -0.473214 0.146832
v 0.069802 -0.542493 -0.186834
v -0.142757 -0.525784 -0.170123
v 0.190534 -0.095143 0.129156
v 0.144770 -0.015073 0.099509
v 0.219265 -0.514566 0.387043
v 0.272395 -0.318427 0.315358
v -0.215098 -0.331255 0.282294
v -0.177743 -0.489239 0.359415
v -0.183617 -0.121895 0.106069
v -0.149633 -0.027694 0.091627
v 0.162977 -0.096173 -0.175081
v 0.211595 -0.520900 -0.100846
v 0.264967 -0.318064 -0.152888
v 0.129256 -0.008327 -0.143590
v -0.228346 -0.490206 -0.015359
v -0.226632 -0.328323 -0.120638
v -0.144887 -0.025868 -0.118615
v -0.176440 -0.127141 -0.132815
vt 0.505888 0.678755
vt 0.528753 0.675871
vt 0.532496 0.709290
vt 0.507544 0.713209
vt 0.454405 0.681875
vt 0.483023 0.681639
vt 0.482591 0.717128
vt 0.451549 0.718000
vt 0.569412 0.666734
vt 0.575643 0.692568
vt 0.617477 0.728467
vt 0.546253 0.748585
vt 0.244415 0.855651
vt 0.217377 0.868562
vt 0.171549 0.848111
vt 0.207070 0.824594
vt 0.219824 0.916864
vt 0.198089 0.938584
vt 0.179539 0.920730
vt 0.198458 0.894646
vt 0.385262 0.670274
vt 0.425787 0.682110
vt 0.420507 0.718873
vt 0.377596 0.696521
vt 0.263672 0.879672
vt 0.241559 0.895144
vt 0.320919 0.744392
vt 0.390820 0.773082
vt 0.378398 0.820067
vt 0.303266 0.794872
vt 0.140760 0.874355
vt 0.109971 0.900600
vt 0.064713 0.869999
vt 0.100236 0.837781
vt 0.471202 0.760482
vt 0.431011 0.766782
vt 0.508727 0.754534
vt 0.483622 0.805608
vt 0.431010 0.812838
vt 0.018138 0.803358
vt 0.051399 0.759521
vt 0.135759 0.805563
vt 0.084660 0.715683
vt 0.112465 0.715128
vt 0.163327 0.791515
vt 0.140270 0.714573
vt 0.190895 0.777467
vt 0.621261 0.788873
vt 0.538230 0.793656
vt 0.510926 0.799632
vt 0.282690 0.968265
vt 0.266934 0.904549
vt 0.292309 0.913954
vt 0.300699 0.954764
vt 0.271452 0.842740
vt 0.242591 0.801078
vt 0.209854 0.978550
vt 0.237267 0.980158
vt 0.285786 0.864199
vt 0.264681 0.981767
vn -0.589099 0.778436 -0.216620
vn -0.401532 0.738762 -0.541276
vn -0.561022 0.277230 -0.779962
vn -0.888974 0.252144 -0.382214
vn -0.580493 0.794183 0.179540
vn -0.662221 0.748619 -0.031526
vn -0.957701 0.283822 -0.046846
vn -0.889370 0.373486 0.263558
vn 0.058168 0.774224 -0.630207
vn 0.148961 0.328318 -0.932737
vn 0.241585 -0.085330 -0.966582
vn -0.510086 -0.088534 -0.855525
vn 0.717948 0.369366 -0.589953
vn 0.902676 0.422254 -0.082736
vn 0.998230 0.055483 -0.021241
vn 0.859371 -0.037233 -0.509964
vn 0.445509 0.876309 0.183203
vn 0.213141 0.842494 0.494675
vn 0.370769 0.680471 0.632008
vn 0.799463 0.528855 0.284799
vn -0.291147 0.807642 0.512742
vn -0.534165 0.572161 0.622303
vn 0.422254 0.835688 -0.351054
vn 0.556566 0.829493 -0.046358
vn 0.394360 0.457686 0.796838
vn -0.525468 0.428510 0.735008
vn -0.422193 -0.483352 0.766869
vn 0.245491 -0.536058 0.807672
vn 0.927396 0.190527 0.321848
vn 0.656301 -0.692770 0.298807
vn -0.996094 0.087527 0.011017
vn -0.912473 0.200415 0.356639
vn -0.928495 -0.000977 -0.371288
vn -0.759331 -0.643605 0.095798
vn -0.696616 -0.636433 0.331065
vn 0.579272 -0.815058 0.010956
vn -0.701773 -0.691336 -0.171819
vn 0.563860 -0.758568 -0.326487
vn -0.431196 -0.748436 -0.503861
vn 0.121433 -0.823573 -0.554033
s 1
f 39/1/1 2/2/2 3/3/3 40/4/4
f 32/5/5 1/6/6 4/7/7 31/8/8
f 2/2/2 7/9/9 8/10/10 3/3/3
f 3/3/3 8/10/10 9/11/11 10/12/12
f 33/13/13 11/14/14 12/15/15 35/16/16
f 26/17/17 14/18/18 15/19/19 25/20/20
f 14/21/18 5/22/21 6/23/22 15/24/19
f 36/25/23 13/26/24 11/14/14 33/13/13
f 16/27/25 17/28/26 18/29/27 19/30/28
f 28/31/29 16/32/25 19/33/28 27/34/30
f 31/8/8 4/7/7 21/35/31 29/36/32
f 40/4/4 3/3/3 10/12/12 38/37/33
f 25/20/20 15/19/19 16/32/25 28/31/29
f 15/24/19 6/23/22 17/28/26 16/27/25
f 29/36/32 21/35/31 22/38/34 30/39/35
f 11/14/14 25/20/20 28/31/29 12/15/15
f 27/34/30 19/33/28 18/40/27
f 27/34/30 18/40/27 30/41/35
f 20/42/36 27/34/30 30/41/35
f 22/43/34 20/42/36 30/41/35
f 22/43/34 37/44/37 20/42/36
f 37/44/37 34/45/38 20/42/36
f 37/44/37 24/46/39 34/45/38
f 24/46/39 23/47/40 34/45/38
f 35/16/16 12/15/15 20/42/36 34/45/38
f 10/12/12 9/11/11 23/48/40 24/49/39
f 38/37/33 10/12/12 24/49/39 37/50/37
f 13/26/24 26/17/17 25/20/20 11/14/14
f 12/15/15 28/31/29 27/34/30 20/42/36
f 39/51/1 36/52/23 7/53/9 2/54/2
f 5/22/21 32/5/5 31/8/8 6/23/22
f 6/23/22 31/8/8 29/36/32 17/28/26
f 17/28/26 29/36/32 30/39/35 18/29/27
f 8/55/10 33/13/13 35/16/16 9/56/11
f 5/57/21 14/18/18 26/17/17 32/58/5
f 21/35/31 38/37/33 37/50/37 22/38/34
f 4/7/7 40/4/4 38/37/33 21/35/31
f 1/6/6 39/1/1 40/4/4 4/7/7
f 9/56/11 35/16/16 34/45/38 23/47/40
f 7/59/9 36/25/23 33/13/13 8/55/10
f 13/26/24 1/60/6 32/58/5 26/17/17
f 1/60/6 13/26/24 36/52/23 39/51/1
