# Blender v2.65 (sub 0) OBJ File: 'backRightLeg.blend'
# www.blender.org
o foot_LP.002_horse_LP.007_horse_LP.001_Cube.002
v 0.180577 -1.546115 0.016702
v 0.021945 -1.531506 0.275693
v -0.142619 -1.518468 0.249090
v -0.234819 -1.519013 0.015537
v 0.021118 -1.545232 -0.198526
v -0.166432 -1.515639 -0.169624
v -0.091672 -0.015514 0.109849
v -0.145442 -0.012997 0.003646
v -0.326857 -1.111751 0.016376
v -0.190905 -1.101945 0.255125
v 0.049529 -0.014984 0.112770
v 0.082494 -1.097486 0.308935
v 0.126123 -0.013023 -0.004367
v 0.265542 -1.086653 0.012870
v -0.091375 -0.011909 -0.100438
v 0.048557 -0.012777 -0.110324
v 0.078851 -1.101470 -0.276539
v -0.194354 -1.102118 -0.216836
v 0.312037 -1.317301 0.018228
v 0.165421 -1.316258 -0.281098
v -0.248163 -1.323893 -0.225225
v -0.362368 -1.302179 -0.002616
v -0.227958 -1.323632 0.278920
v 0.166790 -1.308557 0.318899
v 0.069858 -0.826450 0.238052
v -0.158403 -0.823063 -0.181043
v 0.225743 -0.824157 0.010361
v -0.250623 -0.819859 0.017205
v 0.060844 -0.827251 -0.215224
v -0.161702 -0.830519 0.206653
v 0.091787 -0.072425 0.193298
v -0.143697 -0.064581 -0.169158
v 0.217701 -0.064596 0.001706
v -0.243023 -0.058736 0.019970
v 0.094890 -0.060676 -0.176850
v -0.158521 -0.068237 0.178419
vt 0.400509 0.895843
vt 0.373334 0.944971
vt 0.331377 0.941740
vt 0.318955 0.885476
vt 0.384843 0.851079
vt 0.342802 0.846499
vt 0.760527 0.810932
vt 0.757639 0.763177
vt 0.847585 0.765880
vt 0.855687 0.821100
vt 0.763975 0.861094
vt 0.870122 0.873517
vt 0.589294 0.919447
vt 0.584695 0.969802
vt 0.479715 0.965822
vt 0.496885 0.909180
vt 0.761647 0.716439
vt 0.768204 0.666336
vt 0.874789 0.659269
vt 0.856587 0.711240
vt 0.596445 0.870004
vt 0.494246 0.849527
vt 0.448115 0.902982
vt 0.443930 0.837468
vt 0.926016 0.627464
vt 0.912056 0.712413
vt 0.909124 0.766637
vt 0.912363 0.822586
vt 0.427611 0.965718
vt 0.919406 0.908576
vt 0.746429 0.985952
vt 0.689674 0.973782
vt 0.681702 0.929715
vt 0.778745 0.939339
vt 0.755890 0.890243
vt 0.698644 0.890482
vt 0.977971 0.672113
vt 0.968406 0.716218
vt 0.975905 0.765786
vt 0.965835 0.825266
vt 0.971145 0.869597
vt 0.712947 0.805848
vt 0.712665 0.761825
vt 0.710901 0.854883
vt 0.635498 0.924581
vt 0.637184 0.971792
vt 0.714177 0.719038
vt 0.714911 0.669869
vt 0.647544 0.880243
vt 0.665367 0.800764
vt 0.667692 0.760474
vt 0.657827 0.848672
vt 0.666707 0.721637
vt 0.661618 0.673402
vn 0.560259 -0.828272 0.001312
vn 0.171300 -0.735527 0.655446
vn -0.384167 -0.710318 0.589740
vn -0.609180 -0.792810 0.017243
vn 0.145909 -0.794000 -0.590106
vn -0.419477 -0.714621 -0.559740
vn -0.571947 0.141636 0.807947
vn -0.992401 0.122990 0.002411
vn -0.976074 0.217048 0.011933
vn -0.561754 0.174444 0.808679
vn 0.413739 0.131870 0.900754
vn 0.349467 0.199835 0.915372
vn 0.995148 0.097171 -0.013184
vn 0.970306 0.241493 -0.012879
vn -0.574908 0.123753 -0.808771
vn 0.391919 0.109714 -0.913419
vn 0.334422 0.164830 -0.927885
vn -0.561388 0.162145 -0.811487
vn 0.990204 -0.139470 -0.002808
vn 0.518967 -0.146153 -0.842189
vn -0.619892 -0.155126 -0.769189
vn -0.992492 -0.118992 -0.027589
vn -0.615802 -0.123112 0.778191
vn 0.546831 -0.099612 0.831263
vn -0.135411 0.940489 0.311594
vn 0.151616 0.934019 0.323405
vn 0.336528 0.941649 0.000122
vn -0.294229 0.955657 -0.010071
vn -0.168432 0.940092 -0.296365
vn 0.138005 0.936186 -0.323222
vn -0.497757 0.463057 0.733329
vn -0.877071 0.480087 0.014527
vn 0.397534 0.440565 0.804865
vn 0.894436 0.447127 -0.002258
vn -0.499374 0.443281 -0.744346
vn 0.400250 0.448225 -0.799280
s 1
f 1/1/1 2/2/2 3/3/3
f 1/1/1 3/3/3 4/4/4
f 5/5/5 1/1/1 4/4/4
f 5/5/5 4/4/4 6/6/6
f 30/7/7 28/8/8 9/9/9 10/10/10
f 25/11/11 30/7/7 10/10/10 12/12/12
f 27/13/13 25/14/11 12/15/12 14/16/14
f 26/17/15 29/18/16 17/19/17 18/20/18
f 28/8/8 26/17/15 18/20/18 9/9/9
f 29/21/16 27/13/13 14/16/14 17/22/17
f 17/22/17 14/16/14 19/23/19 20/24/20
f 18/20/18 17/19/17 20/25/20 21/26/21
f 10/10/10 9/9/9 22/27/22 23/28/23
f 9/9/9 18/20/18 21/26/21 22/27/22
f 14/16/14 12/15/12 24/29/24 19/23/19
f 12/12/12 10/10/10 23/28/23 24/30/24
f 7/31/25 11/32/26 13/33/27
f 8/34/28 7/31/25 13/33/27
f 15/35/29 8/34/28 13/33/27
f 15/35/29 13/33/27 16/36/30
f 21/26/21 20/25/20 5/37/5 6/38/6
f 1/1/1 5/5/5 20/24/20 19/23/19
f 23/28/23 22/27/22 4/39/4 3/40/3
f 22/27/22 21/26/21 6/38/6 4/39/4
f 2/2/2 1/1/1 19/23/19 24/29/24
f 24/30/24 23/28/23 3/40/3 2/41/2
f 36/42/31 34/43/32 28/8/8 30/7/7
f 31/44/33 36/42/31 30/7/7 25/11/11
f 33/45/34 31/46/33 25/14/11 27/13/13
f 32/47/35 35/48/36 29/18/16 26/17/15
f 34/43/32 32/47/35 26/17/15 28/8/8
f 35/49/36 33/45/34 27/13/13 29/21/16
f 7/50/25 8/51/28 34/43/32 36/42/31
f 11/52/26 7/50/25 36/42/31 31/44/33
f 13/33/27 11/32/26 31/46/33 33/45/34
f 15/53/29 16/54/30 35/48/36 32/47/35
f 8/51/28 15/53/29 32/47/35 34/43/32
f 16/36/30 13/33/27 33/45/34 35/49/36
