# Blender v2.65 (sub 0) OBJ File: 'frontRightLeg.blend'
# www.blender.org
o frontRightLeg_LP.002_horse_LP.006_horse_LP.001_Cube.003
v 0.100075 -0.014765 0.019140
v 0.048891 -0.014765 0.174927
v 0.129716 -0.228539 0.344307
v 0.238582 -0.211513 0.034766
v -0.121647 -0.014765 0.023749
v -0.065149 -0.014765 -0.132742
v -0.079807 -0.242537 -0.230520
v -0.202878 -0.249059 0.043599
v 0.047770 -0.014765 -0.168752
v 0.110578 -0.239224 -0.276353
v -0.118681 -0.235598 0.282744
v -0.236280 -0.368373 0.112334
v -0.080633 -0.381821 0.447492
v 0.175269 -0.384005 0.475885
v -0.065934 -0.014765 0.137181
v 0.156414 -0.340460 -0.282842
v -0.069702 -0.336218 -0.257328
v 0.304819 -0.346975 0.118662
v 0.327445 -0.604042 0.119780
v 0.183738 -0.610527 -0.165555
v -0.073984 -0.604009 0.524738
v 0.159350 -0.604043 0.561093
v -0.247885 -0.604042 0.139645
v -0.103350 -0.603987 -0.134088
v 0.079734 -0.098964 0.233213
v 0.073487 -0.099803 -0.224570
v -0.084480 -0.101079 0.189621
v -0.153257 -0.105021 0.025427
v 0.174048 -0.075629 0.025179
v -0.072245 -0.099170 -0.180553
v -0.183403 -0.604043 0.378796
v -0.188815 -0.254998 0.175286
v -0.107776 -0.014765 0.084239
v -0.175959 -0.372251 0.328948
v -0.139060 -0.111897 0.113182
v 0.263479 -0.372081 0.360324
v 0.272223 -0.604016 0.430317
v 0.090798 -0.014765 0.119958
v 0.217541 -0.225245 0.232523
v -0.105680 -0.014765 -0.064395
v -0.213251 -0.604323 -0.004014
v 0.018414 -0.246397 -0.286811
v -0.003864 -0.014765 -0.180523
v 0.047502 -0.597236 -0.193713
v 0.268795 -0.353836 -0.134681
v 0.201047 -0.229327 -0.179430
v 0.299277 -0.604101 -0.035823
v -0.162327 -0.243634 -0.107245
v -0.188781 -0.348839 -0.097063
v 0.147234 -0.085639 -0.139523
v 0.051576 -0.343608 -0.306128
v 0.145388 -0.087582 0.168884
v -0.130654 -0.106313 -0.086658
v 0.094003 -0.014765 -0.099094
v 0.009536 -0.104993 -0.231634
vt 0.824268 0.099287
vt 0.833883 0.118009
vt 0.806172 0.146061
vt 0.791688 0.118497
vt 0.805509 0.840076
vt 0.829557 0.846415
vt 0.827155 0.877354
vt 0.797317 0.871137
vt 0.848716 0.853080
vt 0.861908 0.853398
vt 0.864203 0.882555
vt 0.847498 0.882012
vt 0.886056 0.172121
vt 0.915995 0.165415
vt 0.905784 0.197402
vt 0.855458 0.201770
vt 0.857265 0.168120
vt 0.823839 0.201137
vt 0.778046 0.178545
vt 0.884678 0.846513
vt 0.920528 0.830720
vt 0.936804 0.865274
vt 0.889171 0.879320
vt 0.869928 0.132763
vt 0.891613 0.135028
vt 0.911710 0.129578
vt 0.869823 0.901260
vt 0.851445 0.899440
vt 0.828568 0.895929
vt 0.788716 0.893336
vt 0.765155 0.152051
vt 0.963589 0.900676
vt 0.904497 0.905610
vt 0.962582 0.966194
vt 0.922455 0.964794
vt 0.799542 0.247054
vt 0.751331 0.220880
vt 0.901863 0.253758
vt 0.842840 0.253758
vt 0.878550 0.961766
vt 0.844701 0.955707
vt 0.804896 0.954455
vt 0.762584 0.951367
vt 0.726822 0.188523
vt 0.877185 0.112943
vt 0.892999 0.114616
vt 0.819334 0.065700
vt 0.784539 0.073250
vt 0.430726 0.783997
vt 0.464674 0.771600
vt 0.494853 0.779157
vt 0.845015 0.086737
vt 0.850908 0.102163
vt 0.809180 0.822052
vt 0.828372 0.827313
vt 0.847379 0.832799
vt 0.860669 0.830769
vt 0.881017 0.823602
vt 0.906795 0.808852
vt 0.907557 0.113171
vt 0.019763 0.116683
vt 0.040202 0.153322
vt 0.023769 0.143798
vt 0.843450 0.062901
vt 0.761735 0.863602
vt 0.738478 0.890100
vt 0.753059 0.099214
vt 0.696690 0.121238
vt 0.725899 0.947967
vt 0.779877 0.829842
vt 0.788373 0.814074
vt 0.396933 0.847287
vt 0.405275 0.812093
vt 0.519549 0.808953
vt 0.525087 0.847286
vt 0.409908 0.904487
vt 0.510882 0.919450
vt 0.433131 0.937797
vt 0.484764 0.947678
vt 0.121340 0.080826
vt 0.099638 0.113655
vt 0.042843 0.058353
vt 0.061188 0.041943
vt 0.069174 0.146723
vt 0.025764 0.089266
vt 0.123631 0.056236
vt 0.084832 0.038453
vn 0.694662 0.621662 0.361858
vn 0.182806 0.655599 0.732627
vn 0.238136 0.685537 0.687948
vn 0.762108 0.552538 0.337413
vn -0.885281 0.294504 -0.359844
vn -0.665975 0.333872 -0.667043
vn -0.659749 0.202612 -0.723624
vn -0.892056 0.203101 -0.403699
vn -0.197943 0.418592 -0.886319
vn 0.372539 0.497208 -0.783563
vn 0.408734 0.320048 -0.854671
vn -0.193762 0.245979 -0.949675
vn -0.873897 0.379284 0.303964
vn -0.961547 0.269570 -0.052156
vn -0.988830 0.145512 0.032136
vn -0.852687 0.280801 0.440504
vn -0.521500 0.571551 0.633503
vn -0.448042 0.443678 0.776116
vn 0.348979 0.479873 0.804926
vn 0.748039 0.542711 -0.381909
vn 0.811792 0.583911 0.001770
vn 0.900784 0.433363 -0.027833
vn 0.811304 0.370403 -0.452254
vn -0.517411 0.532609 0.669759
vn -0.855190 0.408185 0.319346
vn -0.945585 0.324442 -0.024384
vn 0.511734 -0.026826 -0.858699
vn -0.079257 -0.117801 -0.989837
vn -0.582263 -0.080660 -0.808985
vn -0.900174 0.025819 -0.434736
vn 0.841609 0.361003 0.401654
vn 0.961852 0.271645 0.032105
vn 0.902982 0.128391 -0.409986
vn 0.769646 -0.638386 0.008423
vn 0.706900 -0.656819 -0.262337
vn -0.393353 -0.517930 0.759575
vn 0.275063 -0.488845 0.827845
vn -0.771966 -0.634938 0.029389
vn -0.695822 -0.616413 0.368572
vn 0.371288 -0.754357 -0.541337
vn -0.080660 -0.715690 -0.693716
vn -0.431471 -0.748314 -0.503800
vn -0.677053 -0.680105 -0.281075
vn 0.718284 -0.590228 0.368267
vn -0.348491 0.824122 0.446455
vn -0.558123 0.797845 0.227760
vn 0.390027 0.899380 0.197333
vn 0.095737 0.838588 0.536241
vn -0.582751 0.784387 -0.212287
vn -0.455214 0.799860 -0.391095
vn -0.170385 0.800226 -0.574938
vn 0.250252 0.853175 -0.457595
vn 0.412946 0.892697 -0.180303
vn 0.390698 0.920469 0.007721
vn -0.623829 0.781518 0.002075
s 1
f 52/1/1 25/2/2 3/3/3 39/4/4
f 53/5/5 30/6/6 7/7/7 48/8/8
f 55/9/9 26/10/10 10/11/11 42/12/12
f 32/13/13 8/14/14 12/15/15 34/16/16
f 3/3/3 11/17/17 13/18/18 14/19/19
f 50/20/20 29/21/21 4/22/22 46/23/23
f 25/2/2 27/24/24 11/17/17 3/3/3
f 35/25/25 28/26/26 8/14/14 32/13/13
f 42/12/12 10/11/11 16/27/27 51/28/28
f 48/8/8 7/7/7 17/29/29 49/30/30
f 39/4/4 3/3/3 14/19/19 36/31/31
f 46/23/23 4/22/22 18/32/32 45/33/33
f 45/33/33 18/32/32 19/34/34 47/35/35
f 14/19/19 13/18/18 21/36/36 22/37/37
f 34/16/16 12/15/15 23/38/38 31/39/39
f 51/28/28 16/27/27 20/40/40 44/41/41
f 49/30/30 17/29/29 24/42/42 41/43/43
f 36/31/31 14/19/19 22/37/37 37/44/44
f 15/45/45 33/46/46 35/25/25 27/24/24
f 29/47/21 52/1/1 39/4/4 4/48/22
f 13/18/18 34/16/16 31/39/39 21/36/36
f 24/49/42 44/50/41 20/51/40
f 11/17/17 32/13/13 34/16/16 13/18/18
f 27/24/24 35/25/25 32/13/13 11/17/17
f 38/52/47 2/53/48 25/2/2 52/1/1
f 40/54/49 6/55/50 30/6/6 53/5/5
f 43/56/51 9/57/52 26/10/10 55/9/9
f 54/58/53 1/59/54 29/21/21 50/20/20
f 2/53/48 15/45/45 27/24/24 25/2/2
f 33/46/46 5/60/55 28/26/26 35/25/25
f 6/61/50 9/62/52 43/63/51
f 1/64/54 38/52/47 52/1/1 29/47/21
f 8/65/14 48/8/8 49/30/30 12/66/15
f 10/11/11 46/23/23 45/33/33 16/27/27
f 17/29/29 51/28/28 44/41/41 24/42/42
f 9/57/52 54/58/53 50/20/20 26/10/10
f 18/67/32 36/31/31 37/44/44 19/68/34
f 4/48/22 39/4/4 36/31/31 18/67/32
f 16/27/27 45/33/33 47/35/35 20/40/40
f 12/66/15 49/30/30 41/43/43 23/69/38
f 26/10/10 50/20/20 46/23/23 10/11/11
f 6/55/50 43/56/51 55/9/9 30/6/6
f 7/7/7 42/12/12 51/28/28 17/29/29
f 30/6/6 55/9/9 42/12/12 7/7/7
f 28/70/26 53/5/5 48/8/8 8/65/14
f 5/71/55 40/54/49 53/5/5 28/70/26
f 23/72/38 41/73/43 47/74/35 19/75/34
f 41/73/43 24/49/42 20/51/40 47/74/35
f 31/76/39 23/72/38 19/75/34 37/77/44
f 21/78/36 31/76/39 37/77/44 22/79/37
f 38/80/47 1/81/54 5/82/55 33/83/46
f 5/82/55 1/81/54 54/84/53 40/85/49
f 40/85/49 54/84/53 9/62/52 6/61/50
f 2/86/48 38/80/47 33/83/46 15/87/45
