# Blender v2.65 (sub 0) OBJ File: 'frontLeftLeg.blend'
# www.blender.org
o frontRightLeg_LP.000_horse_LP.006_horse_LP.001_Cube.001
v 0.035898 0.790237 0.362454
v 0.271804 0.664814 0.305060
v 0.272068 0.470929 0.506726
v 0.042569 0.538666 0.608270
v 0.032063 0.373035 -0.642994
v 0.281131 0.328556 -0.538193
v 0.286901 0.561017 -0.392349
v 0.036331 0.687223 -0.457014
v 0.039967 -0.252012 0.704147
v 0.281637 -0.161798 0.599667
v 0.275907 -0.517087 0.469005
v 0.040422 -0.665868 0.593264
v 0.232279 -0.952715 0.338815
v 0.018475 -1.000565 0.421991
v 0.040831 0.179418 0.720161
v 0.276980 0.183529 0.596893
v 0.034359 -0.441318 -0.659028
v 0.023010 -0.870585 -0.504747
v 0.262628 -0.897037 -0.398073
v 0.285649 -0.359733 -0.544083
v -0.002424 -2.179983 0.169204
v 0.143666 -2.215606 0.146859
v 0.189184 -2.469168 0.189425
v -0.087265 -2.469168 0.210024
v 0.038168 0.856230 -0.227930
v 0.276618 0.708094 -0.207164
v 0.167497 -2.200010 -0.242700
v -0.006020 -2.165719 -0.289151
v -0.070790 -2.469168 -0.333545
v 0.199066 -2.469168 -0.319001
v -0.116380 -2.190415 -0.039704
v -0.228203 -2.469168 -0.030767
v 0.258391 -2.221337 -0.032633
v 0.352883 -2.469168 -0.054801
v -0.130288 -2.692713 -0.032718
v -0.101534 -2.692713 0.057927
v 0.048985 -2.692099 0.151779
v 0.117043 -2.692713 0.111805
v 0.256658 -2.692713 -0.038366
v 0.197013 -2.692713 0.039225
v 0.355485 -0.949855 -0.024215
v -0.041851 -2.692713 -0.239555
v 0.128316 -2.692713 -0.200291
v -0.099075 -2.692713 -0.139995
v 0.202547 -2.692713 -0.118088
v -0.032201 -1.230994 -0.077934
v 0.029763 0.895586 0.047622
v 0.032215 -0.034179 -0.720014
v 0.284062 0.011272 -0.590389
v 0.271883 0.750550 0.030378
v 0.454264 0.001950 -0.007075
v 0.165903 -1.559417 0.193195
v 0.012605 -1.507002 -0.312777
v -0.056444 -1.706045 -0.058892
v 0.163793 -1.530071 -0.241815
v 0.028760 -1.565297 0.226395
v 0.244455 -1.542505 -0.029891
v 0.028254 -1.853482 0.173898
v 0.134671 -1.849810 -0.218624
v 0.009803 -1.810266 -0.276510
v 0.142433 -1.866866 0.146955
v 0.212241 -1.886189 -0.029423
v -0.068629 -1.934133 -0.050596
vt 0.116738 0.251876
vt 0.149388 0.342092
vt 0.211903 0.303447
vt 0.190608 0.247206
vt 0.317269 0.020717
vt 0.222053 0.048742
vt 0.267218 0.112856
vt 0.324144 0.098512
vt 0.321046 0.457748
vt 0.429398 0.473706
vt 0.411849 0.391801
vt 0.325023 0.381736
vt 0.526120 0.476530
vt 0.523174 0.407730
vt 0.219799 0.412611
vt 0.257335 0.348987
vt 0.522081 0.079444
vt 0.470151 0.141356
vt 0.580183 0.216837
vt 0.615519 0.149078
vt 0.829586 0.513730
vt 0.907117 0.540273
vt 0.891250 0.476605
vt 0.844888 0.474237
vt 0.161565 0.097896
vt 0.223882 0.139809
vt 0.877845 0.372860
vt 0.922578 0.398151
vt 0.968113 0.365451
vt 0.897429 0.325963
vt 0.150129 0.459880
vt 0.098532 0.434728
vt 0.054002 0.492580
vt 0.129716 0.514010
vt 0.188942 0.404810
vt 0.134338 0.367558
vt 0.859447 0.423698
vt 0.899637 0.433153
vt 0.053371 0.420400
vt 0.039309 0.452590
vt 0.967282 0.494858
vt 0.926773 0.487251
vt 0.923550 0.474775
vt 0.920153 0.446955
vt 0.921061 0.459824
vt 0.784626 0.397157
vt 0.802756 0.335492
vt 0.980354 0.422253
vt 0.942492 0.427797
vt 0.077720 0.361804
vt 0.067804 0.389299
vt 0.929896 0.438591
vt 0.200381 0.482952
vt 0.190078 0.545549
vt 0.252473 0.443335
vt 0.812968 0.293361
vt 0.752016 0.486013
vt 0.762299 0.451534
vt 0.814330 0.769175
vt 0.872119 0.702178
vt 0.894422 0.635045
vt 0.877196 0.589537
vt 0.984981 0.479344
vt 0.988488 0.451915
vt 0.426142 0.032838
vt 0.393392 0.105976
vt 0.124821 0.163440
vt 0.195661 0.184558
vt 0.350905 0.236368
vt 0.555036 0.311419
vt 0.729411 0.810999
vt 0.821550 0.554567
vt 0.742428 0.514211
vt 0.630828 0.811951
vt 0.644885 0.504062
vt 0.533937 0.794483
vt 0.545574 0.515867
vt 0.391303 0.714322
vt 0.444537 0.499464
vt 0.335494 0.544878
vt 0.699938 0.364151
vt 0.725910 0.298438
vt 0.244530 0.503383
vt 0.238950 0.582775
vt 0.312265 0.465708
vt 0.747563 0.251708
vt 0.677450 0.478212
vt 0.681585 0.435065
vn -0.469558 0.751823 0.462844
vn -0.459822 0.461898 0.758415
vn 0.753502 0.347209 0.558245
vn 0.771081 0.543870 0.331065
vn -0.501755 0.307535 -0.808466
vn -0.474136 0.606922 -0.637776
vn 0.766198 0.427473 -0.479720
vn 0.735710 0.236305 -0.634693
vn -0.479354 -0.158330 0.863186
vn -0.455733 -0.314310 0.832728
vn 0.810022 -0.230750 0.539048
vn 0.761895 -0.093753 0.640858
vn -0.552812 -0.246925 0.795831
vn 0.754234 -0.250923 0.606739
vn -0.487533 0.122105 0.864498
vn 0.751946 0.109165 0.650105
vn -0.508255 -0.167669 -0.844691
vn 0.765984 -0.148259 -0.625507
vn 0.750114 -0.227088 -0.621052
vn -0.550310 -0.186132 -0.813898
vn -0.428114 0.172796 0.887020
vn -0.501694 -0.033631 0.864376
vn 0.531480 -0.054353 0.845302
vn 0.546800 0.128941 0.827265
vn -0.437574 0.838313 -0.325083
vn 0.775567 0.582568 -0.243019
vn 0.636891 0.193304 -0.746300
vn 0.554949 -0.110416 -0.824488
vn -0.488876 -0.049013 -0.870968
vn -0.414899 0.206671 -0.886044
vn -0.969146 0.243782 0.035554
vn -0.999023 -0.015137 0.040834
vn 0.974853 0.212561 0.066713
vn 0.998474 -0.054415 0.006500
vn -0.631001 -0.774071 0.051424
vn -0.577410 -0.739402 0.346141
vn 0.007904 -0.753166 0.657765
vn 0.328471 -0.828455 0.453566
vn 0.661824 -0.749077 0.028230
vn 0.433607 -0.817377 0.379223
vn 0.999786 0.003571 0.018830
vn 0.701407 -0.006561 -0.712699
vn -0.320017 -0.752953 -0.574999
vn 0.324198 -0.819147 -0.473128
vn -0.560137 -0.783654 -0.268502
vn 0.462264 -0.800562 -0.381268
vn -0.996673 0.075198 0.031220
vn -0.473586 -0.034944 0.880032
vn -0.428083 -0.002625 -0.903714
vn 0.634236 -0.065981 0.770287
vn -0.471236 0.879147 0.070833
vn -0.493362 0.012543 -0.869716
vn 0.747826 0.026429 -0.663320
vn 0.779626 0.624043 0.051943
vn 0.999634 0.026673 0.000610
vn 0.988281 -0.151219 0.019959
vn -0.999695 0.021882 -0.009186
vn 0.987945 -0.154576 -0.005188
vn 0.723228 -0.184301 -0.665517
vn -0.999939 -0.004852 0.009644
vn -0.515946 -0.172338 0.839076
vn -0.483902 -0.158269 -0.860653
vn 0.684194 -0.205603 0.699667
s 1
f 1/1/1 4/2/2 3/3/3 2/4/4
f 5/5/5 8/6/6 7/7/7 6/8/8
f 9/9/9 12/10/10 11/11/11 10/12/12
f 12/10/10 14/13/13 13/14/14 11/11/11
f 15/15/15 16/16/16 3/3/3 4/2/2
f 17/17/17 20/18/18 19/19/19 18/20/20
f 21/21/21 24/22/22 23/23/23 22/24/24
f 25/25/25 26/26/26 7/7/7 8/6/6
f 27/27/27 30/28/28 29/29/29 28/30/30
f 31/31/31 32/32/32 24/33/22 21/34/21
f 28/35/30 29/36/29 32/32/32 31/31/31
f 33/37/33 34/38/34 30/28/28 27/27/27
f 22/24/24 23/23/23 34/38/34 33/37/33
f 32/32/32 35/39/35 24/33/22
f 24/33/22 35/39/35 36/40/36
f 24/22/22 36/41/36 37/42/37
f 24/22/22 37/42/37 23/23/23
f 23/23/23 37/42/37 38/43/38
f 23/23/23 39/44/39 34/38/34
f 23/23/23 40/45/40 39/44/39
f 23/23/23 38/43/38 40/45/40
f 62/46/41 33/37/33 27/27/27 59/47/42
f 30/28/28 42/48/43 29/29/29
f 30/28/28 43/49/44 42/48/43
f 29/36/29 42/50/43 32/32/32
f 32/32/32 42/50/43 44/51/45
f 32/32/32 44/51/45 35/39/35
f 34/38/34 43/49/44 30/28/28
f 34/38/34 45/52/46 43/49/44
f 34/38/34 39/44/39 45/52/46
f 63/53/47 31/31/31 21/34/21 58/54/48
f 60/55/49 28/35/30 31/31/31 63/53/47
f 59/47/42 27/27/27 28/30/30 60/56/49
f 58/57/48 21/21/21 22/24/24 61/58/50
f 61/58/50 22/24/24 33/37/33 62/46/41
f 4/59/2 1/60/1 47/61/51 25/62/25
f 36/41/36 40/45/40 38/43/38
f 35/63/35 40/45/40 36/41/36
f 35/63/35 39/44/39 40/45/40
f 35/63/35 45/52/46 39/44/39
f 35/63/35 44/64/45 45/52/46
f 45/52/46 44/64/45 43/49/44
f 37/42/37 36/41/36 38/43/38
f 48/65/52 5/5/5 6/8/8 49/66/53
f 47/67/51 50/68/54 26/26/26 25/25/25
f 47/67/51 1/1/1 2/4/4 50/68/54
f 9/9/9 10/12/12 16/16/16 15/15/15
f 48/65/52 49/66/53 20/18/18 17/17/17
f 16/16/16 10/12/12 51/69/55
f 51/69/55 3/3/3 16/16/16
f 2/4/4 3/3/3 51/69/55
f 51/69/55 50/68/54 2/4/4
f 26/26/26 50/68/54 51/69/55
f 51/69/55 7/7/7 26/26/26
f 6/8/8 7/7/7 51/69/55
f 51/69/55 49/66/53 6/8/8
f 20/18/18 49/66/53 51/69/55
f 51/69/55 19/19/19 20/18/18
f 51/69/55 41/70/56 19/19/19
f 51/69/55 13/14/14 41/70/56
f 11/11/11 13/14/14 51/69/55
f 51/69/55 10/12/12 11/11/11
f 15/71/15 4/59/2 25/62/25 8/72/6
f 5/73/5 9/74/9 15/71/15 8/72/6
f 48/75/52 12/76/10 9/74/9 5/73/5
f 17/77/17 14/78/13 12/76/10 48/75/52
f 18/79/20 46/80/57 14/78/13 17/77/17
f 41/70/56 57/81/58 55/82/59 19/19/19
f 46/80/57 54/83/60 56/84/61 14/78/13
f 18/79/20 53/85/62 54/83/60 46/80/57
f 19/19/19 55/82/59 53/86/62 18/20/20
f 14/13/13 56/87/61 52/88/63 13/14/14
f 13/14/14 52/88/63 57/81/58 41/70/56
f 57/81/58 62/46/41 59/47/42 55/82/59
f 54/83/60 63/53/47 58/54/48 56/84/61
f 55/82/59 59/47/42 60/56/49 53/86/62
f 53/85/62 60/55/49 63/53/47 54/83/60
f 56/87/61 58/57/48 61/58/50 52/88/63
f 52/88/63 61/58/50 62/46/41 57/81/58
f 43/49/44 44/64/45 42/48/43
