# Blender v2.65 (sub 0) OBJ File: 'frontLeftLeg.blend'
# www.blender.org
o frontRightLeg_LP.002_horse_LP.006_horse_LP.001_Cube.002
v 0.066556 -0.016360 0.125343
v 0.172931 -0.023372 0.011281
v 0.133763 -0.925165 0.014326
v 0.007952 -0.925165 0.198047
v -0.081829 -0.022352 -0.148401
v -0.149971 -0.020632 0.006970
v -0.260349 -0.925165 0.029217
v -0.186205 -0.925165 -0.206332
v 0.068427 -0.021634 -0.119846
v 0.029187 -0.925165 -0.168894
v -0.084663 -0.023666 0.156984
v -0.178376 -0.925165 0.219634
v 0.107339 -1.199254 0.265022
v -0.274188 -1.165237 0.295777
v -0.395363 -1.185279 0.037596
v -0.262984 -1.194451 -0.281502
v 0.260994 -1.202819 0.044522
v 0.061999 -1.215183 -0.261925
v 0.053959 -1.436348 -0.135424
v 0.110652 -1.436348 0.016014
v -0.185930 -1.436348 -0.182583
v 0.028068 -1.436348 0.186022
v -0.178330 -1.436348 0.196634
v -0.246606 -1.436348 0.054135
v -0.150278 -0.682251 0.205979
v -0.227463 -0.668524 0.026290
v -0.151394 -0.675821 -0.192438
v 0.128627 -0.680468 0.018083
v 0.028262 -0.681809 -0.156253
v 0.013592 -0.699211 0.179152
v -0.103092 -0.082555 0.175765
v -0.177669 -0.070855 0.013323
v -0.096921 -0.072462 -0.165466
v 0.195308 -0.075308 0.022298
v 0.071720 -0.067689 -0.149611
v 0.073428 -0.068146 0.162124
vt 0.296653 0.836006
vt 0.296653 0.885065
vt 0.352389 0.885065
vt 0.352389 0.836006
vt 0.118357 0.836006
vt 0.118357 0.885065
vt 0.176844 0.885065
vt 0.176844 0.836006
vt 0.010949 0.836006
vt 0.010949 0.885065
vt 0.063108 0.885065
vt 0.063108 0.836006
vt 0.237359 0.836006
vt 0.237359 0.885065
vt 0.237359 0.940430
vt 0.296653 0.940430
vt 0.118357 0.940430
vt 0.176844 0.940430
vt 0.010949 0.940430
vt 0.010949 0.987163
vt 0.063108 0.987163
vt 0.063108 0.940430
vt 0.118357 0.987163
vt 0.296653 0.987163
vt 0.352389 0.987163
vt 0.352389 0.940430
vt 0.176844 0.987163
vt 0.237359 0.987163
vt 0.563153 0.934678
vt 0.610673 0.958572
vt 0.577701 0.880284
vt 0.663763 0.950616
vt 0.663706 0.892908
vt 0.629345 0.853023
vt 0.170329 0.644323
vt 0.071192 0.669774
vt 0.138497 0.686797
vt 0.055125 0.608351
vt 0.165852 0.562357
vt 0.083727 0.562173
vt 0.296653 0.724674
vt 0.352389 0.724674
vt 0.118357 0.724674
vt 0.176844 0.724674
vt 0.010949 0.724674
vt 0.063108 0.724674
vt 0.237359 0.724674
vt 0.296653 0.703504
vt 0.352389 0.703505
vt 0.118357 0.703504
vt 0.176844 0.703504
vt 0.010949 0.703505
vt 0.063108 0.703505
vt 0.237359 0.703505
vn 0.504776 0.011383 0.863155
vn 0.476638 0.211432 0.853267
vn 0.972839 0.231239 0.008179
vn 0.998291 -0.032746 0.047975
vn -0.492569 0.089175 -0.865658
vn -0.485336 0.283822 -0.826960
vn -0.952757 0.302347 0.028504
vn -0.992645 0.115665 0.035310
vn 0.552965 0.181799 -0.813105
vn 0.556444 0.004517 -0.830836
vn -0.481735 0.093478 0.871303
vn -0.449355 0.288858 0.845332
vn -0.538499 0.011475 0.842524
vn 0.537797 -0.043519 0.841914
vn -0.546648 -0.054933 -0.835536
vn -0.999054 -0.024018 0.035768
vn 0.998352 -0.035798 0.044527
vn 0.588794 -0.808222 -0.007691
vn 0.393262 -0.774499 -0.495407
vn 0.503952 -0.077609 -0.860225
vn -0.329203 -0.777612 -0.535630
vn 0.303201 -0.770623 0.560472
vn -0.581835 -0.811426 0.055177
vn -0.296609 -0.766289 0.569872
vn -0.296457 0.769250 0.565966
vn 0.285928 0.825983 0.485763
vn -0.611866 0.790796 -0.015046
vn 0.653706 0.755821 -0.036958
vn 0.355907 0.775445 -0.521500
vn -0.292520 0.773614 -0.562059
vn 0.460433 0.224128 0.858913
vn 0.981903 0.177190 0.066652
vn -0.480178 0.265633 -0.835963
vn -0.963286 0.267159 0.025330
vn 0.504776 0.181280 -0.843989
vn -0.480453 0.273049 0.833399
s 1
f 30/1/1 4/2/2 3/3/3 28/4/4
f 27/5/5 8/6/6 7/7/7 26/8/8
f 28/9/4 3/10/3 10/11/9 29/12/10
f 25/13/11 12/14/12 4/2/2 30/1/1
f 26/8/8 7/7/7 12/14/12 25/13/11
f 29/12/10 10/11/9 8/6/6 27/5/5
f 12/14/12 14/15/13 13/16/14 4/2/2
f 8/6/6 16/17/15 15/18/16 7/7/7
f 17/19/17 20/20/18 19/21/19 18/22/20
f 18/22/20 19/21/19 21/23/21 16/17/15
f 13/16/14 22/24/22 20/25/18 17/26/17
f 4/2/2 13/16/14 17/26/17 3/3/3
f 10/11/9 18/22/20 16/17/15 8/6/6
f 3/10/3 17/19/17 18/22/20 10/11/9
f 7/7/7 15/18/16 14/15/13 12/14/12
f 15/18/16 24/27/23 23/28/24 14/15/13
f 16/17/15 21/23/21 24/27/23 15/18/16
f 14/15/13 23/28/24 22/24/22 13/16/14
f 11/29/25 1/30/26 6/31/27
f 6/31/27 1/30/26 2/32/28
f 6/31/27 2/32/28 9/33/29
f 6/31/27 9/33/29 5/34/30
f 24/35/23 22/36/22 23/37/24
f 20/38/18 22/36/22 24/35/23
f 20/38/18 24/35/23 21/39/21
f 20/38/18 21/39/21 19/40/19
f 36/41/31 30/1/1 28/4/4 34/42/32
f 33/43/33 27/5/5 26/8/8 32/44/34
f 34/45/32 28/9/4 29/12/10 35/46/35
f 31/47/36 25/13/11 30/1/1 36/41/31
f 32/44/34 26/8/8 25/13/11 31/47/36
f 35/46/35 29/12/10 27/5/5 33/43/33
f 1/48/26 36/41/31 34/42/32 2/49/28
f 5/50/30 33/43/33 32/44/34 6/51/27
f 2/52/28 34/45/32 35/46/35 9/53/29
f 36/41/31 1/48/26 11/54/25 31/47/36
f 6/51/27 32/44/34 31/47/36 11/54/25
f 9/53/29 35/46/35 33/43/33 5/50/30
