# Blender v2.65 (sub 0) OBJ File: 'head.blend'
# www.blender.org
o horse_LP_Cube.012
v 1.099147 0.836139 -1.545990
v -0.000010 2.141790 -1.933533
v -0.000010 -0.778689 -1.724294
v 0.837496 -0.146506 -1.593751
v 0.667944 1.693818 -1.708488
v -0.837518 -0.146506 -1.593753
v 1.261462 2.069744 -0.647961
v 1.451530 2.837376 0.022812
v 0.912777 1.587502 -0.730941
v 0.825046 2.138420 -0.568713
v 1.577729 1.918347 -0.623681
v 1.187657 2.655514 -0.202102
v 1.674607 2.603588 -0.176255
v 0.633806 1.701581 -0.677128
v 1.044520 1.254424 -0.633867
v 1.274091 2.143294 -0.816245
v 1.479463 3.008131 -0.134247
v 0.829016 1.661052 -0.889781
v 0.756523 2.231411 -0.737702
v 1.694991 1.953014 -0.792991
v 1.147394 2.772806 -0.367103
v 1.751643 2.706300 -0.339440
v 0.547279 1.789712 -0.847085
v 1.092826 1.167552 -0.818952
v -1.226856 2.092904 -0.596445
v -1.429972 2.859778 0.080451
v -0.927944 1.613762 -0.704407
v -0.787075 2.164157 -0.537961
v -1.540160 1.938996 -0.551927
v -1.180406 2.679805 -0.159698
v -1.662799 2.624299 -0.104993
v -0.646594 1.729240 -0.661872
v -1.051166 1.279706 -0.599704
v -1.249311 2.166315 -0.763601
v -1.468498 3.030286 -0.074624
v -0.854364 1.687896 -0.867948
v -0.727445 2.257732 -0.711657
v -1.666847 1.972692 -0.713396
v -1.150921 2.797357 -0.326787
v -1.750201 2.726401 -0.263265
v -0.569676 1.818065 -0.837410
v -1.109811 1.192471 -0.781602
v 1.269050 -0.134231 0.408317
v -0.000014 0.727442 1.003875
v -1.265420 -0.139480 0.408180
v -0.000009 -1.467927 -0.421210
v -0.000015 -2.101898 2.090811
v 1.315684 0.633485 -0.379313
v 0.801867 0.331464 0.911234
v 0.703311 -1.759558 1.771645
v 0.929589 -1.130344 -0.150501
v -0.000012 2.274954 -0.197594
v -0.919589 0.331464 0.911234
v -0.000016 -1.182011 2.353024
v -1.317542 0.633484 -0.379313
v -0.847210 -1.130344 -0.150501
v -0.703341 -1.759558 1.771643
v -0.000011 -0.778678 -1.284023
v -0.000014 -2.311902 1.153585
v 0.565600 -1.951100 1.192652
v 0.565599 -1.150197 1.914497
v -0.565629 -1.150197 1.914496
v -0.565628 -1.951100 1.192650
v 0.786673 -0.271843 -1.048911
v 0.919476 1.854373 -0.331338
v -0.919501 1.854373 -0.331341
v -0.786696 -0.271843 -1.048913
v -1.099167 0.836139 -1.545993
v -0.667964 1.693818 -1.708490
v 0.978766 -0.952902 1.117724
v -0.000015 -0.276882 1.666327
v -0.978794 -0.952902 1.117722
v -0.000013 -1.771453 0.556974
v 0.753630 -0.504455 1.379827
v 0.753631 -1.471804 0.745389
v -0.753659 -0.504455 1.379825
v -0.753658 -1.471804 0.745387
v -0.868284 -0.703000 -0.610288
v -0.892113 1.487714 0.269484
v 0.868310 -0.703047 -0.610325
v 0.639698 1.487713 0.269484
v 0.787573 1.913991 -1.028472
v 1.204422 0.950634 -1.081172
v -0.000011 -0.777300 -1.515641
v 0.813325 -0.172737 -1.325290
v -0.000011 -1.119311 -0.854374
v -1.257153 0.285301 0.064923
v -0.000013 1.680932 0.506323
v 1.283640 0.285302 0.064923
v -0.000011 2.373241 -1.085915
v -0.787595 1.913991 -1.028474
v -1.204444 0.950634 -1.081175
v -0.813347 -0.172737 -1.325292
v -0.000010 0.681551 -1.828913
v 1.051467 0.139120 0.672728
v -1.093956 0.139120 0.672728
v 0.818342 0.716150 0.726584
v -0.902743 0.716150 0.726584
v 1.127147 0.889148 -0.030937
v -1.135549 0.889147 -0.030937
v -1.220225 1.093562 -0.399077
v 1.193583 1.093562 -0.399077
v 0.681848 1.105478 0.570293
v -0.820614 1.105478 0.570294
v 0.810736 1.487714 -0.024882
v -0.928004 1.487714 -0.024882
v 1.006132 0.754292 0.379248
v 1.101336 0.594152 0.334297
v -1.099875 0.594152 0.334297
v -1.027673 0.754292 0.379247
v 0.975266 0.917243 0.300583
v -1.000130 0.917243 0.300583
v 1.028153 0.984996 0.114381
v 1.179025 0.729007 -0.028127
v -1.178570 0.729006 -0.028128
v -1.042134 0.986892 0.114300
v -1.094104 0.782386 0.176964
v 1.170612 0.596961 0.129204
v -1.159871 0.596960 0.129204
v 1.093357 0.782386 0.176965
v 0.351648 -1.993211 2.007596
v -0.000016 -1.678076 2.316146
v -0.351678 -1.993211 2.007595
v -0.000015 -2.302278 1.653524
v 0.634455 -1.471376 1.897564
v 0.634456 -1.913831 1.498784
v -0.282823 -1.207759 2.258726
v 0.282792 -1.207759 2.258726
v -0.634485 -1.913831 1.498782
v -0.634485 -1.471376 1.897562
v 0.282793 -2.180099 1.166175
v -0.282821 -2.180099 1.166174
v 0.317220 -2.184422 1.617809
v 0.317220 -1.616381 2.231821
v -0.317250 -1.616381 2.231821
v -0.317250 -2.184423 1.617807
vt 0.438931 0.642290
vt 0.474564 0.647908
vt 0.439868 0.729136
vt 0.402854 0.745268
vt 0.392884 0.706221
vt 0.392917 0.628168
vt 0.397961 0.577433
vt 0.430643 0.580590
vt 0.355708 0.839406
vt 0.353164 0.777019
vt 0.385998 0.759779
vt 0.386050 0.850526
vt 0.271753 0.672105
vt 0.230518 0.561180
vt 0.275683 0.579576
vt 0.318950 0.663567
vt 0.217674 0.690085
vt 0.217603 0.608560
vt 0.255738 0.739297
vt 0.222461 0.742462
vt 0.301564 0.762309
vt 0.876333 0.653662
vt 0.855128 0.655815
vt 0.852613 0.585157
vt 0.873554 0.587006
vt 0.708860 0.759441
vt 0.727550 0.747859
vt 0.736873 0.826551
vt 0.715149 0.830243
vt 0.889616 0.689946
vt 0.868036 0.701428
vt 0.470086 0.814758
vt 0.454117 0.825667
vt 0.458861 0.766114
vt 0.479121 0.776035
vt 0.410383 0.857084
vt 0.426367 0.847257
vt 0.426158 0.946654
vt 0.412589 0.942370
vt 0.479199 0.835958
vt 0.462065 0.848478
vt 0.868164 0.538858
vt 0.889599 0.542596
vt 0.733478 0.875056
vt 0.708873 0.870379
vt 0.161900 0.672835
vt 0.124056 0.569723
vt 0.162000 0.583603
vt 0.197049 0.665096
vt 0.116688 0.689474
vt 0.116661 0.609137
vt 0.161617 0.732435
vt 0.129038 0.737351
vt 0.186938 0.746846
vt 0.057665 0.643873
vt 0.103254 0.658542
vt 0.053605 0.739062
vt 0.006405 0.751375
vt 0.000000 0.702871
vt 0.006202 0.619029
vt 0.021928 0.570663
vt 0.054749 0.578113
vt 0.103042 0.561180
vt 0.780168 0.649660
vt 0.783886 0.569120
vt 0.805459 0.564272
vt 0.802306 0.648643
vt 0.515649 0.672026
vt 0.535392 0.756924
vt 0.515599 0.764324
vt 0.498024 0.674314
vt 0.768125 0.689385
vt 0.791703 0.696776
vt 0.810148 0.742638
vt 0.823178 0.776406
vt 0.805471 0.783083
vt 0.795815 0.728332
vt 0.535491 0.589822
vt 0.520311 0.577433
vt 0.823291 0.712547
vt 0.807590 0.696776
vt 0.767802 0.521532
vt 0.789480 0.515281
vt 0.138212 0.751098
vt 0.141287 0.787846
vt 0.116661 0.791906
vt 0.116737 0.746846
vt 0.676388 0.139659
vt 0.568256 0.064122
vt 0.686754 0.120344
vt 0.523344 0.130736
vt 0.463188 0.136349
vt 0.473472 0.046092
vt 0.534708 0.018576
vt 0.504090 0.032334
vt 0.846700 0.150243
vt 0.893559 0.047489
vt 0.900634 0.159248
vt 0.929342 0.092636
vt 0.911450 0.070062
vt 0.389852 0.387395
vt 0.384273 0.438907
vt 0.294979 0.443563
vt 0.677350 0.070424
vt 0.722924 0.380158
vt 0.720220 0.472319
vt 0.688733 0.493800
vt 0.447577 0.023046
vt 0.364901 0.360794
vt 0.280575 0.179614
vt 0.215239 0.147669
vt 0.294585 0.065317
vt 0.228292 0.075985
vt 0.261438 0.070651
vt 0.769943 0.396339
vt 0.763021 0.511499
vt 0.741620 0.491909
vt 0.063825 0.246782
vt 0.130333 0.292435
vt 0.108278 0.352650
vt 0.040539 0.300438
vt 0.994362 0.328687
vt 0.989254 0.386629
vt 0.886356 0.389947
vt 0.887698 0.326563
vt 0.989828 0.161997
vt 1.000000 0.078123
vt 0.964671 0.085380
vt 0.162617 0.112300
vt 0.191729 0.031757
vt 0.210011 0.053871
vt 0.947632 0.054562
vt 0.202555 0.939989
vt 0.210556 0.973678
vt 0.177548 0.972879
vt 0.161603 0.944556
vt 0.189384 0.873154
vt 0.149862 0.884974
vt 0.154065 0.853715
vt 0.184214 0.840007
vt 0.250666 0.043265
vt 0.175332 0.474162
vt 0.214622 0.547177
vt 0.138162 0.561180
vt 0.124135 0.486372
vt 0.468211 0.242175
vt 0.427351 0.232081
vt 0.799246 0.258859
vt 0.890262 0.261368
vt 0.606686 0.269836
vt 0.713758 0.276652
vt 0.634391 0.395968
vt 0.348538 0.240090
vt 0.389506 0.117690
vt 0.262077 0.297794
vt 0.151664 0.228870
vt 0.744326 0.273915
vt 0.999749 0.270008
vt 0.087052 0.192221
vt 0.514820 0.248481
vt 0.502035 0.305300
vt 0.302691 0.345482
vt 0.380226 0.310788
vt 0.313642 0.845145
vt 0.290154 0.865419
vt 0.275332 0.817537
vt 0.313671 0.792411
vt 0.285426 0.798606
vt 0.778952 0.276862
vt 0.767931 0.219735
vt 0.577286 0.158349
vt 0.678957 0.192332
vt 0.279630 0.507517
vt 0.245404 0.450555
vt 0.227948 0.410734
vt 0.088306 0.377087
vt 0.019278 0.313054
vt 0.584956 0.000000
vt 0.678616 0.024541
vt 0.409432 0.498480
vt 0.334557 0.523316
vt 0.507989 0.443493
vt 0.460472 0.396866
vt 0.500945 0.365839
vt 0.778952 0.372329
vt 0.886041 0.421138
vt 0.792005 0.454873
vt 0.994822 0.408634
vt 0.654525 0.621491
vt 0.732939 0.714904
vt 0.651110 0.745652
vt 0.452822 0.351830
vt 0.432450 0.344974
vt 0.728280 0.188631
vt 0.715973 0.168657
vt 0.732533 0.165647
vt 0.468846 0.319505
vt 0.454408 0.301475
vt 0.740479 0.123402
vt 0.467638 0.341495
vt 0.448049 0.327035
vt 0.434690 0.307277
vt 0.424827 0.324336
vt 0.408905 0.273506
vt 0.718380 0.205206
vt 0.733241 0.214228
vt 0.699909 0.233062
vt 0.260984 0.396889
vt 0.268641 0.376122
vt 0.280070 0.388507
vt 0.285723 0.363319
vt 0.267180 0.410303
vt 0.787065 0.312627
vt 0.549380 0.315342
vt 0.535566 0.271744
vt 0.294979 0.304199
vt 0.250537 0.354116
vt 0.710576 0.187173
vt 0.535491 0.226100
vt 0.629944 0.798465
vt 0.537124 0.780802
vt 0.573955 0.727702
vt 0.065513 0.394515
vt 0.455538 0.537905
vt 0.396941 0.577433
vt 0.535491 0.472549
vt 0.999958 0.428324
vt 0.889095 0.447888
vt 0.818442 0.493105
vt 0.000000 0.324183
vt 0.535491 0.660779
vt 0.767802 0.621850
vt 0.735095 0.515281
vt 0.542681 0.575241
vt 0.622834 0.515433
vt 0.930593 0.023744
vt 0.967627 0.000000
vt 0.983814 0.039062
vt 0.194554 0.906300
vt 0.145659 0.916232
vt 0.243449 0.896368
vt 0.243507 0.935423
vt 0.243564 0.974477
vt 0.228906 0.861334
vt 0.214363 0.826300
vt 0.239894 0.015879
vt 0.288059 0.000000
vt 0.291322 0.032658
vt 0.421681 0.000000
vt 0.657246 0.515281
vt 0.778368 0.840852
vt 0.788401 0.864877
vt 0.813495 0.867937
vt 0.840723 0.855291
vt 0.782919 0.810722
vt 0.853332 0.824333
vt 0.809288 0.790373
vt 0.844396 0.790358
vn -0.099673 -0.361492 0.927000
vn 0.484848 -0.464217 0.741203
vn 0.555773 -0.288308 0.779717
vn -0.025147 0.180456 0.983245
vn -0.590197 -0.073092 0.803919
vn -0.536973 -0.060305 0.841395
vn -0.595721 -0.551927 0.583453
vn -0.539994 -0.445509 0.714072
vn -0.218421 -0.627277 0.747490
vn 0.085574 0.346721 -0.934019
vn 0.130985 0.980560 0.145970
vn 0.886746 0.400891 -0.230079
vn 0.841487 -0.135350 -0.522996
vn -0.713645 0.567217 -0.410993
vn -0.599750 0.759819 -0.250832
vn -0.338298 -0.369793 -0.865291
vn -0.888516 -0.093570 -0.449141
vn 0.008026 -0.944334 -0.328837
vn 0.152715 -0.363567 0.918943
vn 0.081668 0.184759 0.979369
vn -0.517258 -0.296030 0.802972
vn -0.423627 -0.470351 0.774132
vn 0.596088 -0.053926 0.801080
vn 0.624195 -0.051973 0.779504
vn 0.590777 -0.447340 0.671438
vn 0.611316 -0.575945 0.542711
vn 0.254341 -0.628437 0.735069
vn -0.140751 0.347270 -0.927122
vn -0.864895 -0.143193 -0.481033
vn -0.908689 0.372021 -0.189245
vn -0.128239 0.980438 0.149144
vn 0.559374 0.777306 -0.287851
vn 0.708090 0.558733 -0.431715
vn 0.847438 -0.121372 -0.516770
vn 0.285409 -0.362285 -0.887265
vn -0.033784 -0.946776 -0.320017
vn -0.700644 0.547716 0.457198
vn 0.015198 0.930845 0.365062
vn -0.808679 0.474136 0.348155
vn 0.960418 -0.122166 0.250221
vn 0.694784 0.328562 0.639760
vn 0.786462 0.182165 0.590136
vn 0.858730 -0.358196 0.366405
vn 0.807337 0.003998 0.590045
vn 0.767083 -0.604572 -0.214515
vn 0.710990 -0.647114 -0.275155
vn 0.802942 -0.595111 0.032991
vn 0.703940 0.486587 0.517350
vn 0.717856 0.605548 0.343425
vn -0.712272 0.639210 0.289865
vn -0.685720 0.316019 0.655629
vn -0.786462 0.182165 0.590136
vn -0.498398 0.250069 0.830073
vn 0.498398 0.250069 0.830073
vn 0.599078 0.606037 0.523240
vn -0.963073 -0.133671 0.233650
vn -0.769738 -0.594745 -0.231819
vn -0.858730 -0.358196 0.366405
vn -0.710990 -0.647114 -0.275155
vn -0.802942 -0.595111 0.032991
vn -0.807337 0.003998 0.590045
vn -0.005554 -0.735069 -0.677938
vn -0.766320 -0.470138 -0.437788
vn -0.795038 -0.521409 -0.309854
vn 0.000000 -0.894742 -0.446547
vn 0.793939 -0.519578 -0.315683
vn 0.756462 -0.460433 -0.464461
vn -0.005463 -0.870632 -0.491836
vn 0.000000 -0.942869 -0.333079
vn 0.494949 -0.806726 -0.322733
vn -0.494949 -0.806726 -0.322733
vn 0.515244 -0.841639 0.161687
vn 0.522691 -0.187323 0.831660
vn -0.522691 -0.187323 0.831660
vn -0.515244 -0.841639 0.161687
vn -0.976287 0.105014 -0.189184
vn -0.726615 0.670400 -0.150182
vn -0.437910 0.245705 -0.864772
vn -0.587359 -0.020539 -0.809046
vn 0.829615 0.239875 0.504105
vn 0.580004 0.367199 0.727103
vn 0.986511 -0.020661 0.162328
vn 0.746361 -0.588580 -0.310587
vn 0.016724 0.472976 0.880886
vn -0.647084 0.333110 0.685751
vn 0.007385 0.569475 0.821955
vn -0.991058 -0.061678 0.118107
vn -0.731712 -0.603107 -0.317484
vn -0.886929 0.186346 0.422590
vn -0.009766 -0.867153 -0.497909
vn 0.997620 0.027314 0.062929
vn 0.046510 0.647816 0.760338
vn 0.544389 0.488632 0.681783
vn -0.899930 0.281594 0.332865
vn -0.608936 0.418256 0.673940
vn -0.901791 0.284249 0.325510
vn -0.998810 0.005249 0.048128
vn -0.938505 0.322520 0.123173
vn -0.999786 0.009980 -0.017212
vn -0.817408 -0.564379 -0.115299
vn 0.000000 -0.996948 -0.077700
vn 0.000000 0.990570 -0.136814
vn 0.727531 0.670522 -0.145116
vn 0.977660 0.104862 -0.182104
vn 0.923063 0.353557 0.151372
vn 0.999146 0.029481 -0.028321
vn 0.817469 -0.564379 -0.114811
vn 0.000000 -0.052858 -0.998596
vn 0.878872 0.348186 0.326060
vn 0.816889 0.426984 0.387707
vn -0.902188 0.290017 0.319224
vn -0.900937 0.271218 0.338725
vn 0.910276 0.264840 0.318094
vn 0.866573 0.280221 0.412915
vn 0.913419 0.281716 0.293741
vn 0.871517 0.343608 0.349773
vn 0.806909 0.368450 0.461623
vn 0.790613 0.424238 0.441450
vn 0.592425 0.397565 0.700674
vn -0.886502 0.302805 0.349834
vn -0.911222 0.255776 0.322794
vn -0.644429 0.379559 0.663778
vn -0.921232 0.232734 0.311655
vn -0.925748 0.233589 0.297250
vn 0.000000 0.412915 -0.910764
vn -0.494278 -0.318674 -0.808740
vn 0.437941 0.245705 -0.864772
vn 0.587359 -0.020539 -0.809015
vn 0.000000 -0.566057 -0.824335
vn 0.494278 -0.318674 -0.808740
vn 0.540910 -0.603595 0.585711
vn 0.000000 -0.735801 0.677175
vn 0.000000 -0.977142 0.212500
vn 0.000000 -0.288980 0.957305
vn 0.000000 0.288186 0.957549
vn -0.540910 -0.603595 0.585711
s 1
f 7/1/1 11/2/2 13/3/3
f 7/1/1 13/3/3 8/4/4
f 7/1/1 8/4/4 12/5/5
f 7/1/1 12/5/5 10/6/6
f 7/1/1 10/6/6 14/7/7
f 7/1/1 14/7/7 9/8/8
f 7/9/1 9/10/8 15/11/9
f 7/9/1 15/11/9 11/12/2
f 16/13/10 17/14/11 22/15/12
f 16/13/10 22/15/12 20/16/13
f 16/13/10 19/17/14 21/18/15
f 16/13/10 21/18/15 17/14/11
f 16/13/10 18/19/16 23/20/17
f 16/13/10 23/20/17 19/17/14
f 16/13/10 20/16/13 24/21/18
f 16/13/10 24/21/18 18/19/16
f 12/22/5 21/23/15 19/24/14
f 12/22/5 19/24/14 10/25/6
f 11/26/2 20/27/13 22/28/12
f 11/26/2 22/28/12 13/29/3
f 8/30/4 17/31/11 21/23/15
f 8/30/4 21/23/15 12/22/5
f 9/32/8 18/33/16 24/34/18
f 9/32/8 24/34/18 15/35/9
f 15/36/9 24/37/18 20/38/13
f 15/36/9 20/38/13 11/39/2
f 14/40/7 23/41/17 18/33/16
f 14/40/7 18/33/16 9/32/8
f 10/25/6 19/24/14 23/42/17
f 10/25/6 23/42/17 14/43/7
f 13/29/3 22/28/12 17/44/11
f 13/29/3 17/44/11 8/45/4
f 25/46/19 26/47/20 31/48/21
f 25/46/19 31/48/21 29/49/22
f 25/46/19 28/50/23 30/51/24
f 25/46/19 30/51/24 26/47/20
f 25/46/19 27/52/25 32/53/26
f 25/46/19 32/53/26 28/50/23
f 25/46/19 29/49/22 33/54/27
f 25/46/19 33/54/27 27/52/25
f 34/55/28 38/56/29 40/57/30
f 34/55/28 40/57/30 35/58/31
f 34/55/28 35/58/31 39/59/32
f 34/55/28 39/59/32 37/60/33
f 34/55/28 37/60/33 41/61/34
f 34/55/28 41/61/34 36/62/35
f 34/55/28 36/62/35 42/63/36
f 34/55/28 42/63/36 38/56/29
f 30/64/24 28/65/23 37/66/33
f 30/64/24 37/66/33 39/67/32
f 29/68/22 31/69/21 40/70/30
f 29/68/22 40/70/30 38/71/29
f 26/72/20 30/64/24 39/67/32
f 26/72/20 39/67/32 35/73/31
f 27/74/25 33/75/27 42/76/36
f 27/74/25 42/76/36 36/77/35
f 33/78/27 29/68/22 38/71/29
f 33/78/27 38/71/29 42/79/36
f 32/80/26 27/74/25 36/77/35
f 32/80/26 36/77/35 41/81/34
f 28/65/23 32/82/26 41/83/34
f 28/65/23 41/83/34 37/66/33
f 31/84/21 26/85/20 35/86/31
f 31/84/21 35/86/31 40/87/30
f 79/88/37 52/89/38 106/90/39
f 70/91/40 74/92/41 61/93/42
f 70/91/40 61/93/42 50/94/43
f 61/93/42 125/95/44 50/94/43
f 70/96/40 50/97/43 75/98/45
f 50/97/43 60/99/46 75/98/45
f 50/97/43 126/100/47 60/99/46
f 105/101/48 65/102/49 52/103/38
f 52/89/38 66/104/50 106/90/39
f 76/105/51 62/106/52 127/107/53
f 74/92/41 128/108/54 61/93/42
f 81/109/55 105/101/48 52/103/38
f 72/110/56 77/111/57 57/112/58
f 77/111/57 63/113/59 57/112/58
f 63/113/59 129/114/60 57/112/58
f 72/115/56 62/106/52 76/105/51
f 72/115/56 57/116/58 62/106/52
f 57/116/58 130/117/61 62/106/52
f 86/118/62 78/119/63 67/120/64
f 86/118/62 67/120/64 58/121/65
f 86/122/62 58/123/65 64/124/66
f 86/122/62 64/124/66 80/125/67
f 73/126/68 75/98/45 60/99/46
f 73/126/68 60/99/46 59/127/69
f 60/99/46 131/128/70 59/127/69
f 73/129/68 63/113/59 77/111/57
f 73/129/68 59/130/69 63/113/59
f 59/130/69 132/131/71 63/113/59
f 133/132/72 131/128/70 60/99/46
f 133/132/72 60/99/46 126/100/47
f 134/133/73 125/134/44 61/135/42
f 134/133/73 61/135/42 128/136/54
f 135/137/74 127/138/53 62/139/52
f 135/137/74 62/139/52 130/140/61
f 136/141/75 129/114/60 63/113/59
f 136/141/75 63/113/59 132/131/71
f 92/142/76 91/143/77 69/144/78
f 92/142/76 69/144/78 68/145/79
f 95/146/80 49/147/81 74/92/41
f 43/148/82 70/96/40 75/98/45
f 43/148/82 75/98/45 51/149/83
f 44/150/84 53/151/85 76/105/51
f 44/150/84 76/105/51 71/152/86
f 44/153/84 71/154/86 74/92/41
f 44/153/84 74/92/41 49/147/81
f 45/155/87 56/156/88 77/111/57
f 45/155/87 77/111/57 72/110/56
f 96/157/89 76/105/51 53/151/85
f 46/158/90 51/149/83 75/98/45
f 46/158/90 75/98/45 73/126/68
f 46/159/90 73/129/68 77/111/57
f 46/159/90 77/111/57 56/156/88
f 43/160/82 89/161/91 95/146/80
f 46/158/90 86/122/62 80/125/67
f 46/158/90 80/125/67 51/149/83
f 88/162/92 103/163/93 81/109/55
f 79/164/37 106/165/39 116/166/94
f 79/164/37 116/166/94 104/167/95
f 116/166/94 112/168/96 104/167/95
f 45/169/87 96/157/89 87/170/97
f 88/171/92 79/88/37 104/172/95
f 66/173/50 91/143/77 92/142/76
f 101/174/98 66/173/50 92/142/76
f 55/175/99 101/174/98 92/142/76
f 58/121/65 67/120/64 93/176/100
f 58/121/65 93/176/100 84/177/101
f 44/150/84 88/171/92 104/172/95
f 46/159/90 56/156/88 78/119/63
f 46/159/90 78/119/63 86/118/62
f 66/104/50 52/89/38 90/178/102
f 66/104/50 90/178/102 91/179/77
f 52/103/38 65/102/49 82/180/103
f 52/103/38 82/180/103 90/181/102
f 67/120/64 55/175/99 92/142/76
f 67/120/64 92/142/76 93/176/100
f 65/102/49 83/182/104 82/180/103
f 65/102/49 102/183/105 83/182/104
f 102/183/105 48/184/106 83/182/104
f 48/185/106 64/124/66 85/186/107
f 48/185/106 85/186/107 83/187/104
f 64/124/66 58/123/65 84/188/101
f 64/124/66 84/188/101 85/186/107
f 94/189/108 68/190/79 69/191/78
f 99/192/109 102/183/105 105/101/48
f 99/192/109 105/101/48 113/193/110
f 117/194/111 116/195/94 100/196/112
f 89/161/91 118/197/113 108/198/114
f 89/161/91 108/198/114 95/146/80
f 101/199/98 100/196/112 116/195/94
f 101/199/98 116/195/94 106/90/39
f 48/184/106 102/183/105 99/192/109
f 48/184/106 99/192/109 114/200/115
f 99/192/109 120/201/116 114/200/115
f 107/202/117 111/203/118 103/163/93
f 107/202/117 103/163/93 97/204/119
f 108/198/114 107/202/117 97/204/119
f 108/198/114 97/204/119 95/146/80
f 110/205/120 109/206/121 96/157/89
f 110/205/120 96/157/89 98/207/122
f 115/208/123 119/209/124 117/210/111
f 117/210/111 119/209/124 109/211/121
f 98/207/122 96/157/89 53/151/85
f 100/212/112 115/208/123 117/210/111
f 53/151/85 44/150/84 98/207/122
f 43/148/82 51/149/83 80/125/67
f 43/148/82 80/125/67 89/213/91
f 88/171/92 52/89/38 79/88/37
f 100/212/112 101/174/98 55/175/99
f 100/212/112 55/175/99 115/208/123
f 44/150/84 49/214/81 97/215/119
f 96/216/89 109/211/121 119/209/124
f 96/216/89 119/209/124 87/217/97
f 119/209/124 115/208/123 55/175/99
f 119/209/124 55/175/99 87/217/97
f 95/146/80 97/204/119 49/147/81
f 89/161/91 48/184/106 114/200/115
f 89/161/91 114/200/115 118/197/113
f 98/207/122 104/172/95 112/218/96
f 98/207/122 112/218/96 110/205/120
f 116/195/94 117/194/111 112/218/96
f 88/162/92 81/109/55 52/103/38
f 102/183/105 65/102/49 105/101/48
f 111/203/118 120/201/116 113/193/110
f 114/200/115 120/201/116 118/197/113
f 108/198/114 118/197/113 120/201/116
f 117/194/111 109/206/121 110/205/120
f 107/202/117 108/198/114 120/201/116
f 112/218/96 117/194/111 110/205/120
f 111/203/118 107/202/117 120/201/116
f 87/217/97 55/175/99 67/120/64
f 87/217/97 67/120/64 78/119/63
f 113/193/110 105/101/48 81/109/55
f 113/193/110 81/109/55 103/163/93
f 111/203/118 113/193/110 103/163/93
f 113/193/110 120/201/116 99/192/109
f 89/213/91 80/125/67 64/124/66
f 89/213/91 64/124/66 48/185/106
f 45/155/87 87/217/97 78/119/63
f 45/155/87 78/119/63 56/156/88
f 106/90/39 66/104/50 101/199/98
f 44/150/84 97/215/119 103/219/93
f 98/207/122 44/150/84 104/172/95
f 88/171/92 44/150/84 103/219/93
f 95/146/80 74/92/41 70/91/40
f 72/115/56 76/105/51 96/157/89
f 43/160/82 95/146/80 70/91/40
f 45/169/87 72/115/56 96/157/89
f 91/220/77 90/221/102 2/222/125
f 91/220/77 2/222/125 69/191/78
f 93/176/100 92/142/76 68/145/79
f 93/176/100 68/145/79 6/223/126
f 90/181/102 82/180/103 5/224/127
f 90/181/102 5/224/127 2/225/125
f 1/226/128 5/224/127 82/180/103
f 1/226/128 82/180/103 83/182/104
f 85/186/107 84/188/101 3/227/129
f 85/186/107 3/227/129 4/228/130
f 4/228/130 1/229/128 83/187/104
f 4/228/130 83/187/104 85/186/107
f 84/177/101 93/176/100 6/223/126
f 84/177/101 6/223/126 3/230/129
f 94/189/108 69/191/78 2/222/125
f 5/231/127 94/189/108 2/222/125
f 6/232/126 68/190/79 94/189/108
f 3/233/129 6/232/126 94/189/108
f 1/234/128 94/189/108 5/231/127
f 4/235/130 3/233/129 94/189/108
f 1/234/128 4/235/130 94/189/108
f 121/236/131 133/132/72 126/100/47
f 121/236/131 126/100/47 50/97/43
f 47/237/132 124/238/133 133/132/72
f 47/237/132 133/132/72 121/236/131
f 124/238/133 59/127/69 131/128/70
f 124/238/133 131/128/70 133/132/72
f 122/239/134 134/133/73 128/136/54
f 122/239/134 128/136/54 54/240/135
f 47/241/132 121/242/131 134/133/73
f 47/241/132 134/133/73 122/239/134
f 121/242/131 50/243/43 125/134/44
f 121/242/131 125/134/44 134/133/73
f 123/244/136 135/137/74 130/140/61
f 123/244/136 130/140/61 57/245/58
f 47/241/132 122/239/134 135/137/74
f 47/241/132 135/137/74 123/244/136
f 122/239/134 54/240/135 127/138/53
f 122/239/134 127/138/53 135/137/74
f 124/246/133 136/141/75 132/131/71
f 124/246/133 132/131/71 59/130/69
f 47/247/132 123/248/136 136/141/75
f 47/247/132 136/141/75 124/246/133
f 123/248/136 57/112/58 129/114/60
f 123/248/136 129/114/60 136/141/75
f 71/154/86 54/249/135 128/108/54
f 71/152/86 76/105/51 127/107/53
f 54/250/135 71/152/86 127/107/53
f 74/92/41 71/154/86 128/108/54
f 69/251/78 2/252/125 5/253/127
f 5/253/127 1/254/128 69/251/78
f 69/251/78 1/254/128 68/255/79
f 68/255/79 1/254/128 4/256/130
f 6/257/126 68/255/79 4/256/130
f 3/258/129 6/257/126 4/256/130
